<?xml version="1.0" encoding="utf-8"?>
<!-- Generator: Adobe Illustrator 22.0.1, SVG Export Plug-In . SVG Version: 6.00 Build 0)  -->
<svg version="1.1" id="Layer_1" xmlns="http://www.w3.org/2000/svg" xmlns:xlink="http://www.w3.org/1999/xlink" x="0px" y="0px"
	 viewBox="0 0 368.5 425.2" style="enable-background:new 0 0 368.5 425.2;" xml:space="preserve">
<style type="text/css">
	.st0{fill:#ED1C24;}
	.st1{fill:#2E3192;}
</style>
<g>
	<path class="st0" d="M63.6,158.8c-4.8-16-9.4-31.2-14-45.3c-14.4,6.6-26.6,7.7-33.7,1.5c1.8,13.4,3.2,27.9,4.3,43.5
		c4.9-2.6,12.6-10.5,22-22.6c5.5,19.4,11.1,40.6,17.2,63c-10.7,14.5-20.4,25.4-28.1,31.6c0.5-6.9,1-13.7,1.4-20.4
		c5-1,10.9-3.8,17.3-8c-3.6-18.2-6.9-35.5-10.2-51.7c-5.6,8.4-10.5,15-14.5,19.6c-0.9,11.2-1.9,22.3-2.8,33.5
		c-1.9,1.9-5,2.1-6.8,0.3c1.5,28.9,11.4,48.8,26,61.5c7.3-7.7,15.5-18,24.2-30.5l10.2-90.5L63.6,158.8z M36.3,177.4
		c1.3,3.2,2.5,6.4,3.9,9.7c-2.2,4.5-4.3,8.8-6.3,12.7C34.7,192.4,35.5,184.9,36.3,177.4z"/>
	<path class="st0" d="M295.7,142.9c-3,2-6.2,3.9-9.3,5.7c-9.7-6.2-19.8-13.9-29.8-22.6c-9.1,16.2-18.8,32.9-29.5,49.4
		c4.3,17.6,8.7,35,13.3,52.1c8.2-25.7,15.4-51.3,21.9-76c9.5,16.4,19.1,31.5,28.5,44.7c-5.8,20.5-12.2,41.8-19.3,63.3
		c-0.6-5.9-1.3-11.9-1.9-17.8c4.6-12.7,8.8-25.4,12.8-37.8c-6.3-10.7-12.7-22.2-19.1-34.4c-4.6,19.4-9.6,39.3-15.2,59.4
		c2.2,14.1,4.5,28.2,6.9,42.1c-8.1,11.1-16.8,21.8-25.8,32c19.9-4.1,38.9-11.6,55.7-22.2c7.2-19.6,13.7-39.1,19.4-58.1
		C301.4,195.9,298.5,169.3,295.7,142.9z M263.4,230.6c-1-7.2-1.9-14.4-2.8-21.6c2.3-2.2,4.6-4.5,6.9-6.8
		C266.2,211.6,264.8,221,263.4,230.6z"/>
	<path class="st0" d="M92.8,187.5c4.5-4.5,9-9.4,13.5-14.6c-1.9-6.8-3.8-13.6-5.7-20.2c-5.5,2.7-11,5-16.3,6.8
		c-2.1,17.7-4.2,35.4-6.3,53c13.6-5.6,28.3-14.9,43-26.6C111.4,187.3,101.9,187.9,92.8,187.5z M91.3,165.9c2.7,0.4,5.4,0.7,8.2,1
		c-3.2,3.7-6.3,7.2-9.5,10.6C90.5,173.6,90.9,169.7,91.3,165.9z"/>
	<path class="st0" d="M91.6,253c4.7-4,9.5-8.4,14.2-13.2c-1.1-7.8-2.2-15.6-3.3-23.3c-6.9,2.6-13.6,4.7-20.1,6
		c-2.1,18-4.1,36.1-6.2,54.1c13.4-3.9,28.1-11.4,42.8-21.6C109.6,255.3,100.4,254.7,91.6,253z M89.9,230.4c2.8,0.9,5.7,1.6,8.7,2.3
		c-3.3,3.4-6.7,6.5-9.9,9.5C89,238.2,89.5,234.3,89.9,230.4z"/>
	<path class="st0" d="M302.5,129.7c4.4,34.7,8.8,69.4,13.2,104.1c5.5-17.4,10.4-34.5,14.9-50.9c-3-10.6-6.2-21.7-9.5-33.3
		c8.9-7,16.7-15,23.4-23.9c-3.2,30.3-4.9,65.5-6.7,104.3c9.3-8.2,15.5-20.7,16.5-38.6c-0.4,0.2-1.8-1.1-4-3.6
		c0.5-25.6,1.7-48.9,3.9-69.5c-2.8-2.2-7.2-6.8-12.6-13.4c-7.4,6.4-15.6,12.2-24.6,17.3c0.9-11.5,1.8-22.6,2.8-33.2
		C314.1,101.5,308.4,115.2,302.5,129.7z"/>
	<path class="st0" d="M283.4,73.7c-6-9.9-12.1-20.4-18.1-31.5c3.8,11.9,7.7,23.6,11.6,34.9c0.1,5.9,0.3,11.8,0.4,17.7
		c-6.3-4.5-12.6-9.4-18.8-14.7c2.3,14,4.7,28,7,41.8c7.3,4.7,14.6,8.9,21.7,12.3C285.9,113.8,284.7,93.6,283.4,73.7z M267.5,103.1
		c2.8,0.4,5.6,0.8,8.3,1.1c0.5,4.4,1,8.8,1.5,13.2C274.1,112.8,270.8,108.1,267.5,103.1z"/>
	<path class="st0" d="M159.5,227.1c-4.6,5-9.2,9.8-13.9,14.4c2.7-40.6,5.4-81.3,7.9-122.1c-3.1-8.6-6-17.1-8.8-25.6
		c-14.6,11.5-29.7,21.6-44.5,29.1c-3.6-16.3-6.9-31.8-10.2-46.5c-0.1,21.3-0.3,43.2-0.3,65.8c16.4-1.6,33.8-6.2,51.2-12.7
		c-5.3,48.1-11,95.7-17.1,142.6c9.1,9.7,18.7,18.9,28.7,27.4c6.4-12.8,12.6-26.1,18.5-39.7C166.9,248.9,163.1,238,159.5,227.1z
		 M144,274c0.2-4.4,0.4-8.7,0.6-13.1c4.8-1.4,9.6-2.9,14.4-4.7C154.1,262.4,149.1,268.4,144,274z"/>
	<path class="st0" d="M217.9,182.4c-10.2,14.9-21.2,29.4-32.7,42.9c-1.1-4.3-2.2-8.6-3.3-12.9c10.2-11.1,20.1-22.9,29.4-35
		c-1.5-2.4-3.1-4.8-4.6-7.2c3.9-14.4,7.5-28.8,10.9-43.2c-18.8,28-40.4,55.7-63.7,78.6c3.5,1.2,7.1,2.3,10.6,3.4
		c8.6,19.1,17.9,37.9,27.9,56.1c6.2-15.4,12.1-31.1,17.6-46.9c4,13.3,8.2,26.5,12.5,39.5c-6.5,10.9-13.3,21.6-20.4,32
		c-6.3-7-12.5-14.4-18.5-22c-4.9,7.4-9.9,14.5-15,21.4c5.4,12.1,11,24.1,16.9,35.8c20.4-14.2,39.7-31.7,57.1-51.1
		C233.9,244.2,225.6,213.6,217.9,182.4z M188.9,302.9c-2.5-5.3-5-10.7-7.5-16.2c4.9,2.9,9.9,5.5,14.9,8
		C193.9,297.5,191.4,300.2,188.9,302.9z"/>
</g>
<g>
	<path class="st1" d="M110.2,333.4c-4.2-1.1-8.4-2.3-12.6-3.6c0-4.5,0-9,0-13.5c4.6,1.4,9.3,2.7,14,3.9c0,2.8,0,5.5,0,8.3
		c3.3,0.9,6.6,1.7,9.9,2.4c0-3.3,0-6.7,0-10c-8.6-1.9-17.2-4.2-25.7-6.9c0,8.4,0,16.8,0,25.1c6.7,2.1,13.4,4,20.2,5.7
		c-2.9-2.8-5.8-5.7-8.7-8.5C108.3,335.4,109.3,334.4,110.2,333.4z"/>
	<path class="st1" d="M106.3,327.2c0-1,0-2.1,0-3.1c-1.1-0.3-2.3-0.6-3.4-1c0,1,0,2.1,0,3.1C104,326.6,105.2,326.9,106.3,327.2z"/>
	<path class="st1" d="M155,342c-1.1-0.1-2.3-0.3-3.4-0.4c0,1.1,0,2.3,0,3.4c1.1,0.1,2.3,0.3,3.4,0.4C155,344.2,155,343.1,155,342z"
		/>
	<rect x="156.8" y="376.6" class="st1" width="2.4" height="2.5"/>
	<path class="st1" d="M75.2,322c-1.1-0.4-2.2-0.9-3.3-1.3c0,1.1,0,2.2,0,3.3c1.1,0.4,2.2,0.9,3.3,1.3
		C75.2,324.2,75.2,323.1,75.2,322z"/>
	<polygon class="st1" points="209.2,371.7 209.2,390.2 226.1,390.2 221.6,382.8 210.5,382.8 210.5,373 220.6,373 220.6,379 
		226.1,379 221.6,371.7 	"/>
	<path class="st1" d="M212.2,338.2c1.2-0.1,2.3-0.2,3.5-0.2c0-1.1,0-2.3,0-3.4c-1.2,0.1-2.3,0.2-3.5,0.2
		C212.2,335.9,212.2,337.1,212.2,338.2z"/>
	<rect x="214.3" y="376.8" class="st1" width="2.5" height="2.3"/>
	<path class="st1" d="M252.8,333c1.1-0.2,2.3-0.4,3.4-0.7c0-1.2,0-2.3,0-3.5c-1.1,0.2-2.3,0.5-3.4,0.7
		C252.8,330.7,252.8,331.9,252.8,333z"/>
	<path class="st1" d="M292.9,322.5c1.1-0.4,2.3-0.8,3.4-1.1c0-1.1,0-2.2,0-3.2c-1.1,0.4-2.3,0.8-3.4,1.2
		C292.9,320.4,292.9,321.4,292.9,322.5z"/>
	<rect x="191.7" y="382.8" class="st1" width="2.4" height="2.5"/>
	<path class="st1" d="M358.4,181.2c0.6-25.1,1.8-44.8,3.7-62l0.5-4.3l-20.1-21.4l-6.1,5.3c-3.1,2.7-6.5,5.4-10.1,8
		c0.5-6.1,1-11.7,1.5-17l4.4-47.5l-36.8,83.8l-4-54.3l0-0.5L248.2,5l20.7,73.4c-1.8-1.4-3.6-2.9-5.3-4.4L247,60.1l3.5,21.4
		c1.8,11.1,3.7,22.4,5.6,33.6l-1.8-1.6l-4.8,8.6c-8.8,15.7-25.3,41.3-30.5,49.2l-3.2-4.5l19.9-81.1L211,122.5
		c-17.8,26.5-35.9,49.5-54,68.6c1.6-24,3.1-47.9,4.5-71.2l0.1-1.6l-0.5-1.5c-2.9-8.2-5.9-16.7-8.8-25.4l-3.6-10.8l-8.9,7
		c-11.6,9.1-23.1,17-34,23.3c-0.8-3.8-1.6-7.5-2.5-11.2l-0.1-0.5c-1.8-8.4-3.6-16.5-5.4-24.4L82.4,5.7L82,76.3
		c-0.1,18.3-0.2,34.5-0.2,49.3l-14.6,16.9c-3-9.9-6.4-21.1-9.9-31.6l-2.8-8.5l-8.2,3.8c-11.6,5.3-21,6.4-25.1,2.7l-16-14L8,116
		c1.7,12.5,3.1,26.5,4.2,43l0.9,12.4l4.4-2.4l-1.1,12.8l-6.6-11.1l-2,33.2l0,0.1C9.3,233.4,19,256,36.6,271.2l5.8,5l5.3-5.6
		c5.6-5.9,16.9-19.8,23.1-27.3l-3.7,44.3l11.4-3.3c11.9-3.4,24.6-9.4,37.8-17.9c-0.2,1.5-0.4,3-0.6,4.5l-0.5,3.7l2.6,2.8
		c9.4,10,19.2,19.5,29.3,28l7.8,6.6l4.6-9.1c1.2-2.3,2.3-4.7,3.6-7.2c3.3,7.3,6.7,14.6,10.1,21.7c-43.4-2.4-86.4-13.6-126.3-33.7
		c0,15.3,0,30.5,0,45.8c33.4,17.2,69,28.1,105.3,32.9h-9.5v37.1h28.6h8.4h63.2l-6.9-11.1h6.9l-15.5-25c37.9-4,75.2-14.8,110.1-32.4
		c-9.4-2.8-19-6.1-28.8-9.8c8-11.7,15.9-23.7,23.6-36.2c-38.9,19.1-80.7,29.9-122.8,32.4c1.8-1.4,3.2-2.4,3.8-2.9l17.4-3.6
		c21.4-4.5,41-12.3,58.4-23.3l2.3-1.4l0.9-2.5c5.4-14.6,10.6-29.8,15.8-46.3l4.3,33.7l11-34.7c2.4-7.5,4.7-15.3,7.2-23.6
		c-0.3,5.9-0.6,11.7-0.8,17l-0.9,18.8L343,236c11.7-10.2,18.1-25.1,19.2-44.2l0.7-12.3L358.4,181.2z M180.2,343.9c0-1.8,0-3.5,0-5.3
		c5.3,0.2,10.6,0.3,15.9,0.2c0,1.8,0,3.5,0,5.3C190.8,344.2,185.5,344.1,180.2,343.9z M194.1,349.6c0,4.3,0,8.5,0,12.8h-11.9
		c0-4.3,0-8.6,0-12.9C186.1,349.6,190.1,349.7,194.1,349.6z M194.1,333.4c-2.2,0-4.4,0-6.6,0l2.8-1.9c1.2-0.8,2.5-1.7,3.8-2.7
		C194.1,330.2,194.1,331.8,194.1,333.4z M168.5,364.1c0.9,0.1,1.8,0.1,2.7,0.2v15.1h-2.7V364.1z M87.1,341.5
		c-11.9-4.2-23.6-9.1-35-14.7c0-6.7,0-13.4,0-20.1c9.3,4.5,18.8,8.6,28.3,12.1c0,4.6,0,9.1,0,13.7c-4.5-1.7-9.1-3.5-13.5-5.4
		c0-2.8,0-5.7,0-8.5c-3.3-1.4-6.5-2.8-9.8-4.4c0,3.3,0,6.6,0,9.9c8.2,3.8,16.4,7.3,24.8,10.4c0-8.4,0-16.7,0-25.1
		c-8.4-3.1-16.7-6.5-24.8-10.2c0,2.3,0,4.7,0,7c-1.7-0.8-3.4-1.6-5-2.4c0-4.1,0-8.1,0-12.2c11.4,5.5,23.1,10.3,35,14.4
		C87.1,317.9,87.1,329.7,87.1,341.5z M132.3,353.8c-0.3-0.1-0.6-0.1-0.8-0.2c-0.3-0.1-0.7-0.1-1-0.2c0,0,0,0,0,0
		c-13.4-2.7-26.7-6.2-39.8-10.7c0-11.8,0-23.6,0-35.5c11.9,3.9,24,7.2,36.2,9.7c0,6.8,0,13.6,0,20.5c-5.3-1.1-10.5-2.3-15.7-3.7
		c6.4,6.3,12.8,12.4,19.3,18.3c0-6.4,0-12.8,0-19.1c9.9,1.9,19.9,3.4,30,4.4c0,4.6,0,9.3,0,13.9c-4.8-0.5-9.5-1.1-14.2-1.8
		c0-2.9,0-5.8,0-8.6c-3.5-0.5-6.9-1.1-10.4-1.7c0,3.4,0,6.7,0,10.1c8.7,1.6,17.4,2.8,26.2,3.6c0-8.5,0-17,0-25.5
		c-8.8-0.8-17.5-2-26.2-3.5c0,2.4,0,4.8,0,7.2c-1.8-0.3-3.6-0.7-5.4-1c0-4.1,0-8.2,0-12.4c12.2,2.4,24.6,4,37,4.9c0,12,0,24,0,36
		C155.7,357.6,143.9,356,132.3,353.8C132.3,353.7,132.3,353.7,132.3,353.8z M174.2,394h-26.1v-26.1H163v14.9h-10v-10.1h6.2v-1.1
		h-7.3v18.5h18.5V385h3.8V394z M171.1,358.8c0-12,0-24,0-36c1.6,0.1,3.2,0.2,4.8,0.3c0.2,0.4,0.4,0.8,0.6,1.2c0,11.6,0,23.3,0,34.9
		C174.7,359.1,172.9,359,171.1,358.8z M202.8,394h-26.1V379h21.2v10.1h-10v-6.3h-7.3v7.3H199v-18.5h-18.5v5.2h-3.8v-9h26.1V394z
		 M233,382.8h-6.9L233,394h-27.6v-26.1h18.3L233,382.8z M280.6,310.6c13.3-3.9,26.3-8.6,39.1-14.2c-6.5,10-13.1,19.7-19.7,29.1
		c-4.1,1.5-8.2,2.8-12.3,4.1c0-4.7,0-9.3,0-14c4.6-1.5,9.2-3,13.8-4.7c0,1.6,0,3.1,0,4.7c2-2.9,4.1-5.8,6.1-8.8
		c-7.2,2.8-14.4,5.3-21.7,7.6c0,8.7,0,17.4,0,26.1c6.7-2,13.4-4.3,19.9-6.8c-2.8-1.1-5.6-2.3-8.5-3.4c1-1.8,2.1-3.6,3.1-5.4
		c7.1,2.9,14.1,5.5,21,7.9c-13.3,5.8-27,10.7-40.8,14.7C280.6,335.2,280.6,322.9,280.6,310.6z M240.5,319.6
		c12.3-1.9,24.5-4.6,36.6-7.9c0,7,0,14.1,0,21.1c-9.8,2.7-19.7,4.9-29.7,6.7c0-4.7,0-9.4,0-14.1c4.7-0.8,9.4-1.8,14.1-2.8
		c0,2.9,0,5.9,0,8.8c3.4-0.8,6.8-1.6,10.2-2.5c0-3.4,0-6.9,0-10.3c-8.6,2.2-17.2,4.1-25.9,5.6c0,8.6,0,17.3,0,25.9
		c8.7-1.5,17.3-3.3,25.9-5.5c0-2.5,0-4.9,0-7.4c1.8-0.5,3.5-0.9,5.3-1.4c0,4.2,0,8.5,0,12.7c-12.1,3.3-24.3,5.8-36.6,7.7
		C240.5,343.9,240.5,331.7,240.5,319.6z M236.9,320.1c0,7,0,14,0,20.9c-10,1.4-20.1,2.3-30.1,2.8c0-4.7,0-9.4,0-14
		c4.8-0.2,9.5-0.6,14.3-1c0,2.9,0,5.8,0,8.8c3.5-0.3,7-0.7,10.4-1.1c0-3.4,0-6.8,0-10.3c-8.7,1.1-17.5,1.8-26.3,2.2
		c0,8.6,0,17.1,0,25.7c8.8-0.3,17.6-1,26.3-2.1c0-2.4,0-4.9,0-7.3c1.8-0.2,3.6-0.5,5.4-0.7c0,4.2,0,8.4,0,12.6
		c-12.3,1.7-24.7,2.7-37.1,2.9c0-11.7,0-23.3,0-35c0.6-0.4,1.2-0.9,1.8-1.3C213.3,322.8,225.1,321.8,236.9,320.1z M358.2,191.5
		c-1,18-7,31.9-17.8,41.4l-7.1,6.2l0.4-9.4c0.5-10.4,1.1-22.7,1.7-34.4l0.6-11.1l0.6-9.3c0.7-11.6,1.4-21.8,2.2-31.2l0.4-5.4
		l-3.9,3.8c-2.7,2.7-5.7,5.4-8.7,8l-1,0.8l0.4,1.2c1.7,6.1,3.4,12,5.1,17.8l3.7,12.9l-3.3,11.8c-4.1,14.8-8,27.9-11.9,40.3
		l-5.5,17.3l-4.3-34l-2.7,8.9c-6.1,19.8-12.1,37.8-18.5,54.9l-0.5,1.3l-1.1,0.7c-16.9,10.8-36.1,18.4-57,22.8l-18.3,3.8l-0.4,0.3
		c-0.1,0.1-14.4,11-23.3,17.1l-3.8,2.6l-2.1-4.1c-5.8-11.6-11.5-23.7-17-36l-2-4.4l-1.9,3.9c-1.8,3.8-3.7,7.6-5.4,11l-2.3,4.6
		l-3.9-3.3c-9.9-8.5-19.7-17.8-29-27.7l-1.3-1.4l0.2-1.9c0.2-1.6,0.4-3.3,0.6-4.9l1-8.2l-3.6,2.4c-14.2,9.5-27.8,16.1-40.4,19.7
		l-5.9,1.7l4.3-51.5l-4.1,5.1c-0.2,0.2-19.4,24.1-26.9,32.1l-2.6,2.8l-2.9-2.5c-16.7-14.5-26-36-27.4-64.2l1.2-20l6.3,10.6l2.2-26.4
		l0.8-1c0.5-0.6,1.1-1.3,1.6-2l6.5-7.9L16.6,165l-0.4-6.2c-1.2-16.6-2.6-30.7-4.3-43.3l-1.4-10.6l8,7c5.5,4.8,16,4.1,29.4-2.1
		L52,108l1.4,4.3c3.8,11.7,7.7,24.3,10.9,35l1.1,3.5l20.3-23.5l0-0.7c0-15,0.1-31.4,0.3-50.1L86.2,41l7.7,34.5
		c1.8,7.9,3.5,16.1,5.4,24.4l0.1,0.5c1,4.6,2,9.2,3,13.9l0.6,2.6l2.4-1.3c11.8-6.6,24.2-15,36.9-25l4.5-3.5l1.8,5.4
		c2.9,8.7,5.9,17.3,8.8,25.5l0.3,0.8l0,0.8c-1.5,25-3.2,50.8-4.9,76.6l-0.4,5.4l3.8-3.9c19.5-20,39.1-44.6,58.3-73.1l12.1-18.1
		l-15,61l7.7,10.8l1.6-2.4c0.2-0.3,21.7-33.1,32.2-51.9l2.4-4.3l6.6,5.7l-0.9-5.5c-2.2-13-4.4-26.2-6.6-39.1l-1.8-10.7l8.3,7
		c2.9,2.5,5.9,4.9,8.8,7.1l3.3,2.6l-0.2-9l-13.8-48.7l27.7,42.5l0.5,0.9l5.1,69.9l33.4-75.9l-2.1,22.9c-0.6,6.6-1.2,13.6-1.8,21.3
		l-0.3,4.1l3.4-2.3c5-3.4,9.7-6.9,13.9-10.7l3.2-2.8l16.2,17.2l-0.3,2.4c-2,18-3.2,38.7-3.8,65.3l-0.1,3l4.3-1.6L358.2,191.5z
		 M334.3,148.7c-0.4,4.6-0.7,9.4-1,14.5c-1-3.6-2-7.2-3.1-10.8C331.6,151.2,333,150,334.3,148.7z"/>
	<path class="st1" d="M211.6,236.5l-1.8-5.6l-2,5.5c-3.8,10.2-7.7,20.3-11.6,30.1l-2.7,6.6l0.8,0.9c1.9,2.4,3.9,4.7,5.9,7l1.7,2
		l1.5-2.2c4.9-7.4,9.8-15.1,14.5-22.9l0.5-0.8l-0.3-0.9C215.8,249.8,213.7,243.1,211.6,236.5z M201.5,276.4c-1.1-1.3-2.2-2.7-3.4-4
		l1.8-4.4c3.3-8.1,6.5-16.4,9.7-24.8c1.4,4.5,2.9,9,4.4,13.4C209.8,263.4,205.7,270,201.5,276.4z"/>
	<path class="st1" d="M160.8,212c-2.1-0.6-4.2-1.3-6.6-2.1l-2.5-0.8l-1.5,22l3.8-4.1c0.8-0.9,1.6-1.8,2.5-2.7l7.1-7.7l-2-4.4
		L160.8,212z M155,220.1l0.4-5.7c1.2,0.4,2.3,0.7,3.4,1.1l0.1,0.3L155,220.1z"/>
	<path class="st1" d="M85,213.8l1.3,3.8c3.7-0.9,14.6-4.9,19.5-6.6l4.3,30.3c-1.5,1.5-5,4.9-6.2,6.1l-3.3,3.1l4.5,0.3
		c3.1,0.2,9.2,0.3,12.7,0.3c1.5,0,2.6,0,2.7,0l1.8,0l0.2-1.7c2.5-20.1,5.1-40.6,7.5-61.1l0.6-4.9l-7.1,5.7
		C110.2,199.7,97.2,208,85,213.8z M118.8,247c-2.1,0-5.6,0-8.8-0.1c1.8-1.7,3.5-3.4,3.6-3.6l0.7-0.7l-5.2-37.2l-2.3,0.9
		c0,0-0.3,0.1-0.7,0.3c6.4-4.1,12.8-8.8,19.4-14C123.3,210.8,121.1,229.1,118.8,247z"/>
	<path class="st1" d="M104.7,144l-2.1,0.4l8.2,29.4l-1.4,1.6c-1.3,1.5-2.7,3-4,4.5l-3.3,3.6l4.9-0.3c4.4-0.3,8.9-0.7,13.5-1.4
		l10.5-1.5l0.2-1.5c1.8-15.1,3.3-28.3,4.6-40.4l0.3-3.1l-3,1C123.4,139.7,113.8,142.2,104.7,144z M127.4,176.9l-7.5,1.1
		c-2.8,0.4-5.6,0.7-8.3,1c0.3-0.3,0.5-0.6,0.8-0.9l2.8-3.3l-7.6-27.3c7.7-1.6,15.7-3.7,23.9-6.3
		C130.3,151.9,128.9,163.7,127.4,176.9z"/>
</g>
</svg>
