<?xml version="1.0" encoding="UTF-8"?>
<svg id="Layer_2" data-name="Layer 2" xmlns="http://www.w3.org/2000/svg" viewBox="0 0 133.25 68.04">
  <defs>
    <style>
      .cls-1 {
        fill: #eb1c24;
        stroke: #2e3192;
        stroke-miterlimit: 10;
        stroke-width: 4.75px;
      }

      .cls-2 {
        fill: #2e3192;
      }
    </style>
  </defs>
  <g id="Layer_1-2" data-name="Layer 1">
    <g>
      <path class="cls-1" d="M3.33,45.03c1.31,3.49,3.85,6.34,7.19,8.68,5.6,10.6,20.14,13.26,30.9,11.41,3.18-.54,4.77-.77,7.97-1.14,5.71.47,11.54.66,17.24.66s11.53-.19,17.24-.66c3.2.37,4.79.6,7.97,1.14,10.76,1.84,25.3-.82,30.9-11.41,3.34-2.34,5.88-5.19,7.19-8.68,1.31-3.49,1.28-7.34-.14-11.35,2.82-15.68-16.19-23.78-28.05-26.69-4.42-.75-6.64-1.07-11.09-1.58-7.83-2.03-15.92-3.03-24.01-3.03s-16.18,1-24.01,3.03c-4.45.51-6.67.83-11.09,1.58C19.66,9.9.65,18,3.47,33.68c-1.42,4.01-1.45,7.86-.14,11.35Z"/>
      <path class="cls-2" d="M15.44,25.27c1.06,1.87,3.12,3.4,5.81,4.66,4.53,5.69,16.29,7.11,24.99,6.12,2.57-.29,3.86-.41,6.44-.61,4.62.25,9.33.35,13.94.35s9.32-.1,13.94-.35c2.58.2,3.87.32,6.44.61,8.7.99,20.45-.44,24.99-6.12,2.7-1.25,4.75-2.78,5.81-4.66,1.06-1.87,1.03-3.94-.11-6.09,2.28-8.41-13.09-12.76-22.68-14.32-3.58-.4-5.37-.57-8.97-.85-6.33-1.09-12.88-1.63-19.42-1.63s-13.08.54-19.42,1.63c-3.6.28-5.39.45-8.97.85-9.59,1.56-24.96,5.91-22.68,14.32-1.15,2.15-1.18,4.22-.11,6.09Z"/>
    </g>
  </g>
</svg>