<?xml version="1.0" encoding="UTF-8"?>
<svg id="Layer_2" data-name="Layer 2" xmlns="http://www.w3.org/2000/svg" viewBox="0 0 311.64 105.73">
  <defs>
    <style>
      .cls-1 {
        fill: none;
      }

      .cls-1, .cls-2 {
        stroke-width: 4.75px;
      }

      .cls-1, .cls-2, .cls-3 {
        stroke: #2e3192;
        stroke-miterlimit: 10;
      }

      .cls-2, .cls-3, .cls-4 {
        fill: #eb1c24;
      }

      .cls-3 {
        stroke-width: 3.86px;
      }

      .cls-5 {
        fill: #2e3192;
      }
    </style>
  </defs>
  <g id="Layer_1-2" data-name="Layer 1">
    <g>
      <g>
        <g>
          <g>
            <g>
              <path class="cls-4" d="M219.25,43.51s.02,0,.03,0c7.09.55,14.22.83,21.3,1.22,7.08.39,14.2.9,21.31,1.13.01,0,.02,0,.03,0,5.15,1.46,14.35,3.34,18.11-1.96h0c1.57-7.73-8.83-11.14-14.07-13.21-.02,0-.02,0-.04-.01-7.73-3.81-16.15-5.67-24.24-6.11-8.09-.45-16.66.47-24.76,3.41-.02,0-.02,0-.04,0-5.43,1.49-16.14,3.73-15.43,11.59h0c3.15,5.68,12.51,4.83,17.79,3.94Z"/>
              <path class="cls-4" d="M219.25,43.51s.02,0,.03,0c7.09.55,14.22.83,21.3,1.22,7.08.39,14.2.9,21.31,1.13.01,0,.02,0,.03,0,5.15,1.46,14.35,3.34,18.11-1.96h0c1.57-7.73-8.83-11.14-14.07-13.21-.02,0-.02,0-.04-.01-7.73-3.81-16.15-5.67-24.24-6.11-8.09-.45-16.66.47-24.76,3.41-.02,0-.02,0-.04,0-5.43,1.49-16.14,3.73-15.43,11.59h0c3.15,5.68,12.51,4.83,17.79,3.94Z"/>
              <path class="cls-4" d="M219.25,43.51s.02,0,.03,0c7.09.55,14.22.83,21.3,1.22,7.08.39,14.2.9,21.31,1.13.01,0,.02,0,.03,0,5.15,1.46,14.35,3.34,18.11-1.96h0c1.57-7.73-8.83-11.14-14.07-13.21-.02,0-.02,0-.04-.01-7.73-3.81-16.15-5.67-24.24-6.11-8.09-.45-16.66.47-24.76,3.41-.02,0-.02,0-.04,0-5.43,1.49-16.14,3.73-15.43,11.59h0c3.15,5.68,12.51,4.83,17.79,3.94Z"/>
            </g>
            <path class="cls-4" d="M298.65,65.45c-1.28-3.72-3.6-8.13-6.77-12.52-6.91-9.57-15.19-15.4-18.49-13.02s-.38,12.07,6.53,21.65c3.17,4.39,6.94,5.64,9.75,10.37,0,0,14.87,28.63,18.64,31.23,4.74,3.28-9.66-37.71-9.66-37.71Z"/>
          </g>
          <g>
            <g>
              <path class="cls-4" d="M92.39,43.51s-.02,0-.03,0c-7.09.55-14.22.83-21.3,1.22-7.08.39-14.2.9-21.31,1.13-.01,0-.02,0-.03,0-5.15,1.46-14.35,3.34-18.11-1.96h0c-1.57-7.73,8.83-11.14,14.07-13.21.02,0,.02,0,.04-.01,7.73-3.81,16.15-5.67,24.24-6.11,8.09-.45,16.66.47,24.76,3.41.02,0,.02,0,.04,0,5.43,1.49,16.14,3.73,15.43,11.59h0c-3.15,5.68-12.51,4.83-17.79,3.94Z"/>
              <path class="cls-4" d="M92.39,43.51s-.02,0-.03,0c-7.09.55-14.22.83-21.3,1.22-7.08.39-14.2.9-21.31,1.13-.01,0-.02,0-.03,0-5.15,1.46-14.35,3.34-18.11-1.96h0c-1.57-7.73,8.83-11.14,14.07-13.21.02,0,.02,0,.04-.01,7.73-3.81,16.15-5.67,24.24-6.11,8.09-.45,16.66.47,24.76,3.41.02,0,.02,0,.04,0,5.43,1.49,16.14,3.73,15.43,11.59h0c-3.15,5.68-12.51,4.83-17.79,3.94Z"/>
              <path class="cls-4" d="M92.39,43.51s-.02,0-.03,0c-7.09.55-14.22.83-21.3,1.22-7.08.39-14.2.9-21.31,1.13-.01,0-.02,0-.03,0-5.15,1.46-14.35,3.34-18.11-1.96h0c-1.57-7.73,8.83-11.14,14.07-13.21.02,0,.02,0,.04-.01,7.73-3.81,16.15-5.67,24.24-6.11,8.09-.45,16.66.47,24.76,3.41.02,0,.02,0,.04,0,5.43,1.49,16.14,3.73,15.43,11.59h0c-3.15,5.68-12.51,4.83-17.79,3.94Z"/>
            </g>
            <path class="cls-4" d="M12.99,65.45c1.28-3.72,3.6-8.13,6.77-12.52,6.91-9.57,15.19-15.4,18.49-13.02,3.3,2.38.38,12.07-6.53,21.65-3.17,4.39-6.94,5.64-9.75,10.37,0,0-14.87,28.63-18.64,31.23-4.74,3.28,9.66-37.71,9.66-37.71Z"/>
          </g>
        </g>
        <g>
          <g>
            <g>
              <path class="cls-4" d="M219.25,43.51s.02,0,.03,0c7.09.55,14.22.83,21.3,1.22,7.08.39,14.2.9,21.31,1.13.01,0,.02,0,.03,0,5.15,1.46,14.35,3.34,18.11-1.96h0c1.57-7.73-8.83-11.14-14.07-13.21-.02,0-.02,0-.04-.01-7.73-3.81-16.15-5.67-24.24-6.11-8.09-.45-16.66.47-24.76,3.41-.02,0-.02,0-.04,0-5.43,1.49-16.14,3.73-15.43,11.59h0c3.15,5.68,12.51,4.83,17.79,3.94Z"/>
              <path class="cls-3" d="M219.25,43.51s.02,0,.03,0c7.09.55,14.22.83,21.3,1.22,7.08.39,14.2.9,21.31,1.13.01,0,.02,0,.03,0,5.15,1.46,14.35,3.34,18.11-1.96h0c1.57-7.73-8.83-11.14-14.07-13.21-.02,0-.02,0-.04-.01-7.73-3.81-16.15-5.67-24.24-6.11-8.09-.45-16.66.47-24.76,3.41-.02,0-.02,0-.04,0-5.43,1.49-16.14,3.73-15.43,11.59h0c3.15,5.68,12.51,4.83,17.79,3.94Z"/>
              <path class="cls-1" d="M219.25,43.51s.02,0,.03,0c7.09.55,14.22.83,21.3,1.22,7.08.39,14.2.9,21.31,1.13.01,0,.02,0,.03,0,5.15,1.46,14.35,3.34,18.11-1.96h0c1.57-7.73-8.83-11.14-14.07-13.21-.02,0-.02,0-.04-.01-7.73-3.81-16.15-5.67-24.24-6.11-8.09-.45-16.66.47-24.76,3.41-.02,0-.02,0-.04,0-5.43,1.49-16.14,3.73-15.43,11.59h0c3.15,5.68,12.51,4.83,17.79,3.94Z"/>
            </g>
            <path class="cls-2" d="M298.65,65.45c-1.28-3.72-3.6-8.13-6.77-12.52-6.91-9.57-15.19-15.4-18.49-13.02s-.38,12.07,6.53,21.65c3.17,4.39,6.94,5.64,9.75,10.37,0,0,14.87,28.63,18.64,31.23,4.74,3.28-9.66-37.71-9.66-37.71Z"/>
          </g>
          <g>
            <g>
              <path class="cls-4" d="M92.39,43.51s-.02,0-.03,0c-7.09.55-14.22.83-21.3,1.22-7.08.39-14.2.9-21.31,1.13-.01,0-.02,0-.03,0-5.15,1.46-14.35,3.34-18.11-1.96h0c-1.57-7.73,8.83-11.14,14.07-13.21.02,0,.02,0,.04-.01,7.73-3.81,16.15-5.67,24.24-6.11,8.09-.45,16.66.47,24.76,3.41.02,0,.02,0,.04,0,5.43,1.49,16.14,3.73,15.43,11.59h0c-3.15,5.68-12.51,4.83-17.79,3.94Z"/>
              <path class="cls-3" d="M92.39,43.51s-.02,0-.03,0c-7.09.55-14.22.83-21.3,1.22-7.08.39-14.2.9-21.31,1.13-.01,0-.02,0-.03,0-5.15,1.46-14.35,3.34-18.11-1.96h0c-1.57-7.73,8.83-11.14,14.07-13.21.02,0,.02,0,.04-.01,7.73-3.81,16.15-5.67,24.24-6.11,8.09-.45,16.66.47,24.76,3.41.02,0,.02,0,.04,0,5.43,1.49,16.14,3.73,15.43,11.59h0c-3.15,5.68-12.51,4.83-17.79,3.94Z"/>
              <path class="cls-1" d="M92.39,43.51s-.02,0-.03,0c-7.09.55-14.22.83-21.3,1.22-7.08.39-14.2.9-21.31,1.13-.01,0-.02,0-.03,0-5.15,1.46-14.35,3.34-18.11-1.96h0c-1.57-7.73,8.83-11.14,14.07-13.21.02,0,.02,0,.04-.01,7.73-3.81,16.15-5.67,24.24-6.11,8.09-.45,16.66.47,24.76,3.41.02,0,.02,0,.04,0,5.43,1.49,16.14,3.73,15.43,11.59h0c-3.15,5.68-12.51,4.83-17.79,3.94Z"/>
            </g>
            <path class="cls-2" d="M12.99,65.45c1.28-3.72,3.6-8.13,6.77-12.52,6.91-9.57,15.19-15.4,18.49-13.02,3.3,2.38.38,12.07-6.53,21.65-3.17,4.39-6.94,5.64-9.75,10.37,0,0-14.87,28.63-18.64,31.23-4.74,3.28,9.66-37.71,9.66-37.71Z"/>
          </g>
        </g>
        <g>
          <g>
            <g>
              <path class="cls-1" d="M219.25,43.51s.02,0,.03,0c7.09.55,14.22.83,21.3,1.22,7.08.39,14.2.9,21.31,1.13.01,0,.02,0,.03,0,5.15,1.46,14.35,3.34,18.11-1.96h0c1.57-7.73-8.83-11.14-14.07-13.21-.02,0-.02,0-.04-.01-7.73-3.81-16.15-5.67-24.24-6.11-8.09-.45-16.66.47-24.76,3.41-.02,0-.02,0-.04,0-5.43,1.49-16.14,3.73-15.43,11.59h0c3.15,5.68,12.51,4.83,17.79,3.94Z"/>
              <path class="cls-1" d="M219.25,43.51s.02,0,.03,0c7.09.55,14.22.83,21.3,1.22,7.08.39,14.2.9,21.31,1.13.01,0,.02,0,.03,0,5.15,1.46,14.35,3.34,18.11-1.96h0c1.57-7.73-8.83-11.14-14.07-13.21-.02,0-.02,0-.04-.01-7.73-3.81-16.15-5.67-24.24-6.11-8.09-.45-16.66.47-24.76,3.41-.02,0-.02,0-.04,0-5.43,1.49-16.14,3.73-15.43,11.59h0c3.15,5.68,12.51,4.83,17.79,3.94Z"/>
              <path class="cls-1" d="M219.25,43.51s.02,0,.03,0c7.09.55,14.22.83,21.3,1.22,7.08.39,14.2.9,21.31,1.13.01,0,.02,0,.03,0,5.15,1.46,14.35,3.34,18.11-1.96h0c1.57-7.73-8.83-11.14-14.07-13.21-.02,0-.02,0-.04-.01-7.73-3.81-16.15-5.67-24.24-6.11-8.09-.45-16.66.47-24.76,3.41-.02,0-.02,0-.04,0-5.43,1.49-16.14,3.73-15.43,11.59h0c3.15,5.68,12.51,4.83,17.79,3.94Z"/>
            </g>
            <path class="cls-1" d="M298.65,65.45c-1.28-3.72-3.6-8.13-6.77-12.52-6.91-9.57-15.19-15.4-18.49-13.02s-.38,12.07,6.53,21.65c3.17,4.39,6.94,5.64,9.75,10.37,0,0,14.87,28.63,18.64,31.23,4.74,3.28-9.66-37.71-9.66-37.71Z"/>
          </g>
          <g>
            <g>
              <path class="cls-1" d="M92.39,43.51s-.02,0-.03,0c-7.09.55-14.22.83-21.3,1.22-7.08.39-14.2.9-21.31,1.13-.01,0-.02,0-.03,0-5.15,1.46-14.35,3.34-18.11-1.96h0c-1.57-7.73,8.83-11.14,14.07-13.21.02,0,.02,0,.04-.01,7.73-3.81,16.15-5.67,24.24-6.11,8.09-.45,16.66.47,24.76,3.41.02,0,.02,0,.04,0,5.43,1.49,16.14,3.73,15.43,11.59h0c-3.15,5.68-12.51,4.83-17.79,3.94Z"/>
              <path class="cls-1" d="M92.39,43.51s-.02,0-.03,0c-7.09.55-14.22.83-21.3,1.22-7.08.39-14.2.9-21.31,1.13-.01,0-.02,0-.03,0-5.15,1.46-14.35,3.34-18.11-1.96h0c-1.57-7.73,8.83-11.14,14.07-13.21.02,0,.02,0,.04-.01,7.73-3.81,16.15-5.67,24.24-6.11,8.09-.45,16.66.47,24.76,3.41.02,0,.02,0,.04,0,5.43,1.49,16.14,3.73,15.43,11.59h0c-3.15,5.68-12.51,4.83-17.79,3.94Z"/>
              <path class="cls-1" d="M92.39,43.51s-.02,0-.03,0c-7.09.55-14.22.83-21.3,1.22-7.08.39-14.2.9-21.31,1.13-.01,0-.02,0-.03,0-5.15,1.46-14.35,3.34-18.11-1.96h0c-1.57-7.73,8.83-11.14,14.07-13.21.02,0,.02,0,.04-.01,7.73-3.81,16.15-5.67,24.24-6.11,8.09-.45,16.66.47,24.76,3.41.02,0,.02,0,.04,0,5.43,1.49,16.14,3.73,15.43,11.59h0c-3.15,5.68-12.51,4.83-17.79,3.94Z"/>
            </g>
            <path class="cls-1" d="M12.99,65.45c1.28-3.72,3.6-8.13,6.77-12.52,6.91-9.57,15.19-15.4,18.49-13.02,3.3,2.38.38,12.07-6.53,21.65-3.17,4.39-6.94,5.64-9.75,10.37,0,0-14.87,28.63-18.64,31.23-4.74,3.28,9.66-37.71,9.66-37.71Z"/>
          </g>
        </g>
      </g>
      <g>
        <path class="cls-2" d="M92.52,45.03c1.31,3.49,3.85,6.34,7.19,8.68,5.6,10.6,20.14,13.26,30.9,11.41,3.18-.54,4.77-.77,7.97-1.14,5.71.47,11.54.66,17.24.66s11.53-.19,17.24-.66c3.2.37,4.79.6,7.97,1.14,10.76,1.84,25.3-.82,30.9-11.41,3.34-2.34,5.88-5.19,7.19-8.68,1.31-3.49,1.28-7.34-.14-11.35,2.82-15.68-16.19-23.78-28.05-26.69-4.42-.75-6.64-1.07-11.09-1.58-7.83-2.03-15.92-3.03-24.01-3.03s-16.18,1-24.01,3.03c-4.45.51-6.67.83-11.09,1.58-11.86,2.91-30.87,11.01-28.05,26.69-1.42,4.01-1.45,7.86-.14,11.35Z"/>
        <path class="cls-5" d="M104.64,25.27c1.06,1.87,3.12,3.4,5.81,4.66,4.53,5.69,16.29,7.11,24.99,6.12,2.57-.29,3.86-.41,6.44-.61,4.62.25,9.33.35,13.94.35s9.32-.1,13.94-.35c2.58.2,3.87.32,6.44.61,8.7.99,20.45-.44,24.99-6.12,2.7-1.25,4.75-2.78,5.81-4.66,1.06-1.87,1.03-3.94-.11-6.09,2.28-8.41-13.09-12.76-22.68-14.32-3.58-.4-5.37-.57-8.97-.85-6.33-1.09-12.88-1.63-19.42-1.63s-13.08.54-19.42,1.63c-3.6.28-5.39.45-8.97.85-9.59,1.56-24.96,5.91-22.68,14.32-1.15,2.15-1.18,4.22-.11,6.09Z"/>
      </g>
    </g>
  </g>
</svg>