<?xml version="1.0" encoding="UTF-8"?>
<svg id="Layer_2" data-name="Layer 2" xmlns="http://www.w3.org/2000/svg" viewBox="0 0 138.17 200.4">
  <defs>
    <style>
      .cls-1, .cls-2, .cls-3 {
        fill: none;
      }

      .cls-1, .cls-2, .cls-3, .cls-4, .cls-5, .cls-6, .cls-7, .cls-8 {
        stroke: #2e3192;
        stroke-miterlimit: 10;
      }

      .cls-1, .cls-4 {
        stroke-width: 5.14px;
      }

      .cls-2, .cls-5 {
        stroke-width: 5.61px;
      }

      .cls-3 {
        stroke-width: 4.75px;
      }

      .cls-4, .cls-5, .cls-6, .cls-7, .cls-8, .cls-9 {
        fill: #eb1c24;
      }

      .cls-6 {
        stroke-width: 4.56px;
      }

      .cls-7 {
        stroke-width: 4.52px;
      }

      .cls-8 {
        stroke-width: 4.18px;
      }

      .cls-10 {
        fill: #2e3192;
      }
    </style>
  </defs>
  <g id="Layer_1-2" data-name="Layer 1">
    <g>
      <g>
        <path class="cls-7" d="M126.33,22.89c-1.19-3.49-3.48-6.34-6.5-8.68-5.07-10.6-18.21-13.26-27.94-11.41-2.87.54-4.31.77-7.2,1.14-5.17-.47-10.43-.66-15.59-.66s-10.42.19-15.59.66c-2.89-.37-4.33-.6-7.2-1.14-9.73-1.84-22.88.82-27.94,11.41-3.02,2.34-5.31,5.19-6.5,8.68-1.19,3.49-1.15,7.34.13,11.35-2.55,15.68,14.64,23.78,25.37,26.69,4,.75,6.01,1.07,10.03,1.58,7.08,2.03,14.4,3.03,21.71,3.03s14.63-1,21.71-3.03c4.02-.51,6.03-.83,10.03-1.58,10.72-2.91,27.92-11.01,25.37-26.69,1.28-4.01,1.32-7.86.13-11.35Z"/>
        <path class="cls-10" d="M115.37,42.65c-.96-1.87-2.82-3.4-5.26-4.66-4.1-5.69-14.73-7.11-22.6-6.12-2.32.29-3.49.41-5.82.61-4.18-.25-8.43-.35-12.61-.35s-8.43.1-12.61.35c-2.34-.2-3.5-.32-5.82-.61-7.87-.99-18.5.44-22.6,6.12-2.44,1.25-4.3,2.78-5.26,4.66-.96,1.87-.93,3.94.1,6.09-2.07,8.41,11.84,12.76,20.51,14.32,3.23.4,4.86.57,8.11.85,5.73,1.09,11.64,1.63,17.56,1.63s11.83-.54,17.56-1.63c3.25-.28,4.88-.45,8.11-.85,8.67-1.56,22.58-5.91,20.51-14.32,1.04-2.15,1.06-4.22.1-6.09Z"/>
      </g>
      <g>
        <g>
          <g>
            <g>
              <g>
                <path class="cls-9" d="M98.45,64.26s.01.02.02.03c3.14,7.02,6.57,13.94,9.86,20.86,3.29,6.93,6.49,13.95,9.95,20.82,0,.01,0,.02,0,.04,1.27,5.64,4.25,15.36,11.23,16.19h0c8.15-2.51,6.01-14.15,5.27-20.19,0-.02,0-.02,0-.04-.38-9.31-2.97-18.27-6.73-26.18-3.76-7.91-9.07-15.58-16.05-21.75-.01-.01-.02-.02-.03-.03-4.22-4.39-11.89-13.4-18.99-8.66h0c-3.76,5.93,1.89,14.38,5.46,18.93Z"/>
                <path class="cls-9" d="M98.45,64.26s.01.02.02.03c3.14,7.02,6.57,13.94,9.86,20.86,3.29,6.93,6.49,13.95,9.95,20.82,0,.01,0,.02,0,.04,1.27,5.64,4.25,15.36,11.23,16.19h0c8.15-2.51,6.01-14.15,5.27-20.19,0-.02,0-.02,0-.04-.38-9.31-2.97-18.27-6.73-26.18-3.76-7.91-9.07-15.58-16.05-21.75-.01-.01-.02-.02-.03-.03-4.22-4.39-11.89-13.4-18.99-8.66h0c-3.76,5.93,1.89,14.38,5.46,18.93Z"/>
                <path class="cls-9" d="M98.45,64.26s.01.02.02.03c3.14,7.02,6.57,13.94,9.86,20.86,3.29,6.93,6.49,13.95,9.95,20.82,0,.01,0,.02,0,.04,1.27,5.64,4.25,15.36,11.23,16.19h0c8.15-2.51,6.01-14.15,5.27-20.19,0-.02,0-.02,0-.04-.38-9.31-2.97-18.27-6.73-26.18-3.76-7.91-9.07-15.58-16.05-21.75-.01-.01-.02-.02-.03-.03-4.22-4.39-11.89-13.4-18.99-8.66h0c-3.76,5.93,1.89,14.38,5.46,18.93Z"/>
              </g>
              <path class="cls-9" d="M132.32,147.78c1.17-4.09,1.83-9.44,1.73-15.29-.21-12.76-3.95-23.05-8.35-22.98-4.4.07-7.8,10.48-7.59,23.24.1,5.85,2.67,9.3,2.24,15.22,0,0-4.51,34.6-2.78,39.24,2.18,5.84,14.75-39.43,14.75-39.43Z"/>
            </g>
            <g>
              <g>
                <path class="cls-9" d="M98.45,64.26s.01.02.02.03c3.14,7.02,6.57,13.94,9.86,20.86,3.29,6.93,6.49,13.95,9.95,20.82,0,.01,0,.02,0,.04,1.27,5.64,4.25,15.36,11.23,16.19h0c8.15-2.51,6.01-14.15,5.27-20.19,0-.02,0-.02,0-.04-.38-9.31-2.97-18.27-6.73-26.18-3.76-7.91-9.07-15.58-16.05-21.75-.01-.01-.02-.02-.03-.03-4.22-4.39-11.89-13.4-18.99-8.66h0c-3.76,5.93,1.89,14.38,5.46,18.93Z"/>
                <path class="cls-8" d="M98.45,64.26s.01.02.02.03c3.14,7.02,6.57,13.94,9.86,20.86,3.29,6.93,6.49,13.95,9.95,20.82,0,.01,0,.02,0,.04,1.27,5.64,4.25,15.36,11.23,16.19h0c8.15-2.51,6.01-14.15,5.27-20.19,0-.02,0-.02,0-.04-.38-9.31-2.97-18.27-6.73-26.18-3.76-7.91-9.07-15.58-16.05-21.75-.01-.01-.02-.02-.03-.03-4.22-4.39-11.89-13.4-18.99-8.66h0c-3.76,5.93,1.89,14.38,5.46,18.93Z"/>
                <path class="cls-1" d="M98.45,64.26s.01.02.02.03c3.14,7.02,6.57,13.94,9.86,20.86,3.29,6.93,6.49,13.95,9.95,20.82,0,.01,0,.02,0,.04,1.27,5.64,4.25,15.36,11.23,16.19h0c8.15-2.51,6.01-14.15,5.27-20.19,0-.02,0-.02,0-.04-.38-9.31-2.97-18.27-6.73-26.18-3.76-7.91-9.07-15.58-16.05-21.75-.01-.01-.02-.02-.03-.03-4.22-4.39-11.89-13.4-18.99-8.66h0c-3.76,5.93,1.89,14.38,5.46,18.93Z"/>
              </g>
              <path class="cls-4" d="M132.32,147.78c1.17-4.09,1.83-9.44,1.73-15.29-.21-12.76-3.95-23.05-8.35-22.98-4.4.07-7.8,10.48-7.59,23.24.1,5.85,2.67,9.3,2.24,15.22,0,0-4.51,34.6-2.78,39.24,2.18,5.84,14.75-39.43,14.75-39.43Z"/>
            </g>
            <g>
              <g>
                <path class="cls-3" d="M98.45,64.26s.01.02.02.03c3.14,7.02,6.57,13.94,9.86,20.86,3.29,6.93,6.49,13.95,9.95,20.82,0,.01,0,.02,0,.04,1.27,5.64,4.25,15.36,11.23,16.19h0c8.15-2.51,6.01-14.15,5.27-20.19,0-.02,0-.02,0-.04-.38-9.31-2.97-18.27-6.73-26.18-3.76-7.91-9.07-15.58-16.05-21.75-.01-.01-.02-.02-.03-.03-4.22-4.39-11.89-13.4-18.99-8.66h0c-3.76,5.93,1.89,14.38,5.46,18.93Z"/>
                <path class="cls-3" d="M98.45,64.26s.01.02.02.03c3.14,7.02,6.57,13.94,9.86,20.86,3.29,6.93,6.49,13.95,9.95,20.82,0,.01,0,.02,0,.04,1.27,5.64,4.25,15.36,11.23,16.19h0c8.15-2.51,6.01-14.15,5.27-20.19,0-.02,0-.02,0-.04-.38-9.31-2.97-18.27-6.73-26.18-3.76-7.91-9.07-15.58-16.05-21.75-.01-.01-.02-.02-.03-.03-4.22-4.39-11.89-13.4-18.99-8.66h0c-3.76,5.93,1.89,14.38,5.46,18.93Z"/>
                <path class="cls-3" d="M98.45,64.26s.01.02.02.03c3.14,7.02,6.57,13.94,9.86,20.86,3.29,6.93,6.49,13.95,9.95,20.82,0,.01,0,.02,0,.04,1.27,5.64,4.25,15.36,11.23,16.19h0c8.15-2.51,6.01-14.15,5.27-20.19,0-.02,0-.02,0-.04-.38-9.31-2.97-18.27-6.73-26.18-3.76-7.91-9.07-15.58-16.05-21.75-.01-.01-.02-.02-.03-.03-4.22-4.39-11.89-13.4-18.99-8.66h0c-3.76,5.93,1.89,14.38,5.46,18.93Z"/>
              </g>
              <path class="cls-3" d="M132.32,147.78c1.17-4.09,1.83-9.44,1.73-15.29-.21-12.76-3.95-23.05-8.35-22.98-4.4.07-7.8,10.48-7.59,23.24.1,5.85,2.67,9.3,2.24,15.22,0,0-4.51,34.6-2.78,39.24,2.18,5.84,14.75-39.43,14.75-39.43Z"/>
            </g>
          </g>
          <g>
            <g>
              <g>
                <path class="cls-9" d="M76.69,61.13s.01.02.02.03c2.31,8.07,4.93,16.08,7.41,24.08,2.48,8,4.85,16.08,7.51,24.04,0,.02,0,.02,0,.04.5,6.3,2.21,17.26,9.61,19.24h0c9.2-1.45,8.69-14.36,8.84-21,0-.02,0-.03,0-.05,1.04-10.12-.37-20.2-3.2-29.34-2.83-9.13-7.37-18.25-13.96-26,0-.02-.01-.02-.02-.04-3.88-5.39-10.76-16.33-19.17-12.31h0c-4.99,5.83-.2,15.83,2.95,21.3Z"/>
                <path class="cls-9" d="M76.69,61.13s.01.02.02.03c2.31,8.07,4.93,16.08,7.41,24.08,2.48,8,4.85,16.08,7.51,24.04,0,.02,0,.02,0,.04.5,6.3,2.21,17.26,9.61,19.24h0c9.2-1.45,8.69-14.36,8.84-21,0-.02,0-.03,0-.05,1.04-10.12-.37-20.2-3.2-29.34-2.83-9.13-7.37-18.25-13.96-26,0-.02-.01-.02-.02-.04-3.88-5.39-10.76-16.33-19.17-12.31h0c-4.99,5.83-.2,15.83,2.95,21.3Z"/>
                <path class="cls-9" d="M76.69,61.13s.01.02.02.03c2.31,8.07,4.93,16.08,7.41,24.08,2.48,8,4.85,16.08,7.51,24.04,0,.02,0,.02,0,.04.5,6.3,2.21,17.26,9.61,19.24h0c9.2-1.45,8.69-14.36,8.84-21,0-.02,0-.03,0-.05,1.04-10.12-.37-20.2-3.2-29.34-2.83-9.13-7.37-18.25-13.96-26,0-.02-.01-.02-.02-.04-3.88-5.39-10.76-16.33-19.17-12.31h0c-4.99,5.83-.2,15.83,2.95,21.3Z"/>
              </g>
              <path class="cls-9" d="M100.29,156.64c1.9-4.24,3.45-9.92,4.25-16.25,1.76-13.82-.68-25.52-5.45-26.13s-10.06,10.11-11.81,23.93c-.81,6.33,1.44,10.47.05,16.8,0,0-10.25,36.68-9.1,41.96,1.45,6.65,22.07-40.31,22.07-40.31Z"/>
            </g>
            <g>
              <g>
                <path class="cls-9" d="M76.69,61.13s.01.02.02.03c2.31,8.07,4.93,16.08,7.41,24.08,2.48,8,4.85,16.08,7.51,24.04,0,.02,0,.02,0,.04.5,6.3,2.21,17.26,9.61,19.24h0c9.2-1.45,8.69-14.36,8.84-21,0-.02,0-.03,0-.05,1.04-10.12-.37-20.2-3.2-29.34-2.83-9.13-7.37-18.25-13.96-26,0-.02-.01-.02-.02-.04-3.88-5.39-10.76-16.33-19.17-12.31h0c-4.99,5.83-.2,15.83,2.95,21.3Z"/>
                <path class="cls-6" d="M76.69,61.13s.01.02.02.03c2.31,8.07,4.93,16.08,7.41,24.08,2.48,8,4.85,16.08,7.51,24.04,0,.02,0,.02,0,.04.5,6.3,2.21,17.26,9.61,19.24h0c9.2-1.45,8.69-14.36,8.84-21,0-.02,0-.03,0-.05,1.04-10.12-.37-20.2-3.2-29.34-2.83-9.13-7.37-18.25-13.96-26,0-.02-.01-.02-.02-.04-3.88-5.39-10.76-16.33-19.17-12.31h0c-4.99,5.83-.2,15.83,2.95,21.3Z"/>
                <path class="cls-2" d="M76.69,61.13s.01.02.02.03c2.31,8.07,4.93,16.08,7.41,24.08,2.48,8,4.85,16.08,7.51,24.04,0,.02,0,.02,0,.04.5,6.3,2.21,17.26,9.61,19.24h0c9.2-1.45,8.69-14.36,8.84-21,0-.02,0-.03,0-.05,1.04-10.12-.37-20.2-3.2-29.34-2.83-9.13-7.37-18.25-13.96-26,0-.02-.01-.02-.02-.04-3.88-5.39-10.76-16.33-19.17-12.31h0c-4.99,5.83-.2,15.83,2.95,21.3Z"/>
              </g>
              <path class="cls-5" d="M100.29,156.64c1.9-4.24,3.45-9.92,4.25-16.25,1.76-13.82-.68-25.52-5.45-26.13s-10.06,10.11-11.81,23.93c-.81,6.33,1.44,10.47.05,16.8,0,0-10.25,36.68-9.1,41.96,1.45,6.65,22.07-40.31,22.07-40.31Z"/>
            </g>
            <g>
              <g>
                <path class="cls-3" d="M76.69,61.13s.01.02.02.03c2.31,8.07,4.93,16.08,7.41,24.08,2.48,8,4.85,16.08,7.51,24.04,0,.02,0,.02,0,.04.5,6.3,2.21,17.26,9.61,19.24h0c9.2-1.45,8.69-14.36,8.84-21,0-.02,0-.03,0-.05,1.04-10.12-.37-20.2-3.2-29.34-2.83-9.13-7.37-18.25-13.96-26,0-.02-.01-.02-.02-.04-3.88-5.39-10.76-16.33-19.17-12.31h0c-4.99,5.83-.2,15.83,2.95,21.3Z"/>
                <path class="cls-3" d="M76.69,61.13s.01.02.02.03c2.31,8.07,4.93,16.08,7.41,24.08,2.48,8,4.85,16.08,7.51,24.04,0,.02,0,.02,0,.04.5,6.3,2.21,17.26,9.61,19.24h0c9.2-1.45,8.69-14.36,8.84-21,0-.02,0-.03,0-.05,1.04-10.12-.37-20.2-3.2-29.34-2.83-9.13-7.37-18.25-13.96-26,0-.02-.01-.02-.02-.04-3.88-5.39-10.76-16.33-19.17-12.31h0c-4.99,5.83-.2,15.83,2.95,21.3Z"/>
                <path class="cls-3" d="M76.69,61.13s.01.02.02.03c2.31,8.07,4.93,16.08,7.41,24.08,2.48,8,4.85,16.08,7.51,24.04,0,.02,0,.02,0,.04.5,6.3,2.21,17.26,9.61,19.24h0c9.2-1.45,8.69-14.36,8.84-21,0-.02,0-.03,0-.05,1.04-10.12-.37-20.2-3.2-29.34-2.83-9.13-7.37-18.25-13.96-26,0-.02-.01-.02-.02-.04-3.88-5.39-10.76-16.33-19.17-12.31h0c-4.99,5.83-.2,15.83,2.95,21.3Z"/>
              </g>
              <path class="cls-3" d="M100.29,156.64c1.9-4.24,3.45-9.92,4.25-16.25,1.76-13.82-.68-25.52-5.45-26.13s-10.06,10.11-11.81,23.93c-.81,6.33,1.44,10.47.05,16.8,0,0-10.25,36.68-9.1,41.96,1.45,6.65,22.07-40.31,22.07-40.31Z"/>
            </g>
          </g>
        </g>
        <g>
          <g>
            <g>
              <g>
                <path class="cls-9" d="M39.72,64.26s-.01.02-.02.03c-3.14,7.02-6.57,13.94-9.86,20.86-3.29,6.93-6.49,13.95-9.95,20.82,0,.01,0,.02,0,.04-1.27,5.64-4.25,15.36-11.23,16.19h0c-8.15-2.51-6.01-14.15-5.27-20.19,0-.02,0-.02,0-.04.38-9.31,2.97-18.27,6.73-26.18,3.76-7.91,9.07-15.58,16.05-21.75.01-.01.02-.02.03-.03,4.22-4.39,11.89-13.4,18.99-8.66h0c3.76,5.93-1.89,14.38-5.46,18.93Z"/>
                <path class="cls-9" d="M39.72,64.26s-.01.02-.02.03c-3.14,7.02-6.57,13.94-9.86,20.86-3.29,6.93-6.49,13.95-9.95,20.82,0,.01,0,.02,0,.04-1.27,5.64-4.25,15.36-11.23,16.19h0c-8.15-2.51-6.01-14.15-5.27-20.19,0-.02,0-.02,0-.04.38-9.31,2.97-18.27,6.73-26.18,3.76-7.91,9.07-15.58,16.05-21.75.01-.01.02-.02.03-.03,4.22-4.39,11.89-13.4,18.99-8.66h0c3.76,5.93-1.89,14.38-5.46,18.93Z"/>
                <path class="cls-9" d="M39.72,64.26s-.01.02-.02.03c-3.14,7.02-6.57,13.94-9.86,20.86-3.29,6.93-6.49,13.95-9.95,20.82,0,.01,0,.02,0,.04-1.27,5.64-4.25,15.36-11.23,16.19h0c-8.15-2.51-6.01-14.15-5.27-20.19,0-.02,0-.02,0-.04.38-9.31,2.97-18.27,6.73-26.18,3.76-7.91,9.07-15.58,16.05-21.75.01-.01.02-.02.03-.03,4.22-4.39,11.89-13.4,18.99-8.66h0c3.76,5.93-1.89,14.38-5.46,18.93Z"/>
              </g>
              <path class="cls-9" d="M5.85,147.78c-1.17-4.09-1.83-9.44-1.73-15.29.21-12.76,3.95-23.05,8.35-22.98s7.8,10.48,7.59,23.24c-.1,5.85-2.67,9.3-2.24,15.22,0,0,4.51,34.6,2.78,39.24-2.18,5.84-14.75-39.43-14.75-39.43Z"/>
            </g>
            <g>
              <g>
                <path class="cls-9" d="M39.72,64.26s-.01.02-.02.03c-3.14,7.02-6.57,13.94-9.86,20.86-3.29,6.93-6.49,13.95-9.95,20.82,0,.01,0,.02,0,.04-1.27,5.64-4.25,15.36-11.23,16.19h0c-8.15-2.51-6.01-14.15-5.27-20.19,0-.02,0-.02,0-.04.38-9.31,2.97-18.27,6.73-26.18,3.76-7.91,9.07-15.58,16.05-21.75.01-.01.02-.02.03-.03,4.22-4.39,11.89-13.4,18.99-8.66h0c3.76,5.93-1.89,14.38-5.46,18.93Z"/>
                <path class="cls-8" d="M39.72,64.26s-.01.02-.02.03c-3.14,7.02-6.57,13.94-9.86,20.86-3.29,6.93-6.49,13.95-9.95,20.82,0,.01,0,.02,0,.04-1.27,5.64-4.25,15.36-11.23,16.19h0c-8.15-2.51-6.01-14.15-5.27-20.19,0-.02,0-.02,0-.04.38-9.31,2.97-18.27,6.73-26.18,3.76-7.91,9.07-15.58,16.05-21.75.01-.01.02-.02.03-.03,4.22-4.39,11.89-13.4,18.99-8.66h0c3.76,5.93-1.89,14.38-5.46,18.93Z"/>
                <path class="cls-1" d="M39.72,64.26s-.01.02-.02.03c-3.14,7.02-6.57,13.94-9.86,20.86-3.29,6.93-6.49,13.95-9.95,20.82,0,.01,0,.02,0,.04-1.27,5.64-4.25,15.36-11.23,16.19h0c-8.15-2.51-6.01-14.15-5.27-20.19,0-.02,0-.02,0-.04.38-9.31,2.97-18.27,6.73-26.18,3.76-7.91,9.07-15.58,16.05-21.75.01-.01.02-.02.03-.03,4.22-4.39,11.89-13.4,18.99-8.66h0c3.76,5.93-1.89,14.38-5.46,18.93Z"/>
              </g>
              <path class="cls-4" d="M5.85,147.78c-1.17-4.09-1.83-9.44-1.73-15.29.21-12.76,3.95-23.05,8.35-22.98s7.8,10.48,7.59,23.24c-.1,5.85-2.67,9.3-2.24,15.22,0,0,4.51,34.6,2.78,39.24-2.18,5.84-14.75-39.43-14.75-39.43Z"/>
            </g>
            <g>
              <g>
                <path class="cls-3" d="M39.72,64.26s-.01.02-.02.03c-3.14,7.02-6.57,13.94-9.86,20.86-3.29,6.93-6.49,13.95-9.95,20.82,0,.01,0,.02,0,.04-1.27,5.64-4.25,15.36-11.23,16.19h0c-8.15-2.51-6.01-14.15-5.27-20.19,0-.02,0-.02,0-.04.38-9.31,2.97-18.27,6.73-26.18,3.76-7.91,9.07-15.58,16.05-21.75.01-.01.02-.02.03-.03,4.22-4.39,11.89-13.4,18.99-8.66h0c3.76,5.93-1.89,14.38-5.46,18.93Z"/>
                <path class="cls-3" d="M39.72,64.26s-.01.02-.02.03c-3.14,7.02-6.57,13.94-9.86,20.86-3.29,6.93-6.49,13.95-9.95,20.82,0,.01,0,.02,0,.04-1.27,5.64-4.25,15.36-11.23,16.19h0c-8.15-2.51-6.01-14.15-5.27-20.19,0-.02,0-.02,0-.04.38-9.31,2.97-18.27,6.73-26.18,3.76-7.91,9.07-15.58,16.05-21.75.01-.01.02-.02.03-.03,4.22-4.39,11.89-13.4,18.99-8.66h0c3.76,5.93-1.89,14.38-5.46,18.93Z"/>
                <path class="cls-3" d="M39.72,64.26s-.01.02-.02.03c-3.14,7.02-6.57,13.94-9.86,20.86-3.29,6.93-6.49,13.95-9.95,20.82,0,.01,0,.02,0,.04-1.27,5.64-4.25,15.36-11.23,16.19h0c-8.15-2.51-6.01-14.15-5.27-20.19,0-.02,0-.02,0-.04.38-9.31,2.97-18.27,6.73-26.18,3.76-7.91,9.07-15.58,16.05-21.75.01-.01.02-.02.03-.03,4.22-4.39,11.89-13.4,18.99-8.66h0c3.76,5.93-1.89,14.38-5.46,18.93Z"/>
              </g>
              <path class="cls-3" d="M5.85,147.78c-1.17-4.09-1.83-9.44-1.73-15.29.21-12.76,3.95-23.05,8.35-22.98s7.8,10.48,7.59,23.24c-.1,5.85-2.67,9.3-2.24,15.22,0,0,4.51,34.6,2.78,39.24-2.18,5.84-14.75-39.43-14.75-39.43Z"/>
            </g>
          </g>
          <g>
            <g>
              <g>
                <path class="cls-9" d="M61.49,61.13s-.01.02-.02.03c-2.31,8.07-4.93,16.08-7.41,24.08-2.48,8-4.85,16.08-7.51,24.04,0,.02,0,.02,0,.04-.5,6.3-2.21,17.26-9.61,19.24h0c-9.2-1.45-8.69-14.36-8.84-21,0-.02,0-.03,0-.05-1.04-10.12.37-20.2,3.2-29.34,2.83-9.13,7.37-18.25,13.96-26,0-.02.01-.02.02-.04,3.88-5.39,10.76-16.33,19.17-12.31h0c4.99,5.83.2,15.83-2.95,21.3Z"/>
                <path class="cls-9" d="M61.49,61.13s-.01.02-.02.03c-2.31,8.07-4.93,16.08-7.41,24.08-2.48,8-4.85,16.08-7.51,24.04,0,.02,0,.02,0,.04-.5,6.3-2.21,17.26-9.61,19.24h0c-9.2-1.45-8.69-14.36-8.84-21,0-.02,0-.03,0-.05-1.04-10.12.37-20.2,3.2-29.34,2.83-9.13,7.37-18.25,13.96-26,0-.02.01-.02.02-.04,3.88-5.39,10.76-16.33,19.17-12.31h0c4.99,5.83.2,15.83-2.95,21.3Z"/>
                <path class="cls-9" d="M61.49,61.13s-.01.02-.02.03c-2.31,8.07-4.93,16.08-7.41,24.08-2.48,8-4.85,16.08-7.51,24.04,0,.02,0,.02,0,.04-.5,6.3-2.21,17.26-9.61,19.24h0c-9.2-1.45-8.69-14.36-8.84-21,0-.02,0-.03,0-.05-1.04-10.12.37-20.2,3.2-29.34,2.83-9.13,7.37-18.25,13.96-26,0-.02.01-.02.02-.04,3.88-5.39,10.76-16.33,19.17-12.31h0c4.99,5.83.2,15.83-2.95,21.3Z"/>
              </g>
              <path class="cls-9" d="M37.89,156.64c-1.9-4.24-3.45-9.92-4.25-16.25-1.76-13.82.68-25.52,5.45-26.13s10.06,10.11,11.81,23.93c.81,6.33-1.44,10.47-.05,16.8,0,0,10.25,36.68,9.1,41.96-1.45,6.65-22.07-40.31-22.07-40.31Z"/>
            </g>
            <g>
              <g>
                <path class="cls-9" d="M61.49,61.13s-.01.02-.02.03c-2.31,8.07-4.93,16.08-7.41,24.08-2.48,8-4.85,16.08-7.51,24.04,0,.02,0,.02,0,.04-.5,6.3-2.21,17.26-9.61,19.24h0c-9.2-1.45-8.69-14.36-8.84-21,0-.02,0-.03,0-.05-1.04-10.12.37-20.2,3.2-29.34,2.83-9.13,7.37-18.25,13.96-26,0-.02.01-.02.02-.04,3.88-5.39,10.76-16.33,19.17-12.31h0c4.99,5.83.2,15.83-2.95,21.3Z"/>
                <path class="cls-6" d="M61.49,61.13s-.01.02-.02.03c-2.31,8.07-4.93,16.08-7.41,24.08-2.48,8-4.85,16.08-7.51,24.04,0,.02,0,.02,0,.04-.5,6.3-2.21,17.26-9.61,19.24h0c-9.2-1.45-8.69-14.36-8.84-21,0-.02,0-.03,0-.05-1.04-10.12.37-20.2,3.2-29.34,2.83-9.13,7.37-18.25,13.96-26,0-.02.01-.02.02-.04,3.88-5.39,10.76-16.33,19.17-12.31h0c4.99,5.83.2,15.83-2.95,21.3Z"/>
                <path class="cls-2" d="M61.49,61.13s-.01.02-.02.03c-2.31,8.07-4.93,16.08-7.41,24.08-2.48,8-4.85,16.08-7.51,24.04,0,.02,0,.02,0,.04-.5,6.3-2.21,17.26-9.61,19.24h0c-9.2-1.45-8.69-14.36-8.84-21,0-.02,0-.03,0-.05-1.04-10.12.37-20.2,3.2-29.34,2.83-9.13,7.37-18.25,13.96-26,0-.02.01-.02.02-.04,3.88-5.39,10.76-16.33,19.17-12.31h0c4.99,5.83.2,15.83-2.95,21.3Z"/>
              </g>
              <path class="cls-5" d="M37.89,156.64c-1.9-4.24-3.45-9.92-4.25-16.25-1.76-13.82.68-25.52,5.45-26.13s10.06,10.11,11.81,23.93c.81,6.33-1.44,10.47-.05,16.8,0,0,10.25,36.68,9.1,41.96-1.45,6.65-22.07-40.31-22.07-40.31Z"/>
            </g>
            <g>
              <g>
                <path class="cls-3" d="M61.49,61.13s-.01.02-.02.03c-2.31,8.07-4.93,16.08-7.41,24.08-2.48,8-4.85,16.08-7.51,24.04,0,.02,0,.02,0,.04-.5,6.3-2.21,17.26-9.61,19.24h0c-9.2-1.45-8.69-14.36-8.84-21,0-.02,0-.03,0-.05-1.04-10.12.37-20.2,3.2-29.34,2.83-9.13,7.37-18.25,13.96-26,0-.02.01-.02.02-.04,3.88-5.39,10.76-16.33,19.17-12.31h0c4.99,5.83.2,15.83-2.95,21.3Z"/>
                <path class="cls-3" d="M61.49,61.13s-.01.02-.02.03c-2.31,8.07-4.93,16.08-7.41,24.08-2.48,8-4.85,16.08-7.51,24.04,0,.02,0,.02,0,.04-.5,6.3-2.21,17.26-9.61,19.24h0c-9.2-1.45-8.69-14.36-8.84-21,0-.02,0-.03,0-.05-1.04-10.12.37-20.2,3.2-29.34,2.83-9.13,7.37-18.25,13.96-26,0-.02.01-.02.02-.04,3.88-5.39,10.76-16.33,19.17-12.31h0c4.99,5.83.2,15.83-2.95,21.3Z"/>
                <path class="cls-3" d="M61.49,61.13s-.01.02-.02.03c-2.31,8.07-4.93,16.08-7.41,24.08-2.48,8-4.85,16.08-7.51,24.04,0,.02,0,.02,0,.04-.5,6.3-2.21,17.26-9.61,19.24h0c-9.2-1.45-8.69-14.36-8.84-21,0-.02,0-.03,0-.05-1.04-10.12.37-20.2,3.2-29.34,2.83-9.13,7.37-18.25,13.96-26,0-.02.01-.02.02-.04,3.88-5.39,10.76-16.33,19.17-12.31h0c4.99,5.83.2,15.83-2.95,21.3Z"/>
              </g>
              <path class="cls-3" d="M37.89,156.64c-1.9-4.24-3.45-9.92-4.25-16.25-1.76-13.82.68-25.52,5.45-26.13s10.06,10.11,11.81,23.93c.81,6.33-1.44,10.47-.05,16.8,0,0,10.25,36.68,9.1,41.96-1.45,6.65-22.07-40.31-22.07-40.31Z"/>
            </g>
          </g>
        </g>
      </g>
    </g>
  </g>
</svg>