<?xml version="1.0" encoding="UTF-8"?>
<svg id="Layer_2" data-name="Layer 2" xmlns="http://www.w3.org/2000/svg" viewBox="0 0 112.6 83.63">
  <defs>
    <style>
      .cls-1 {
        fill: none;
      }

      .cls-1, .cls-2 {
        stroke-width: 4.75px;
      }

      .cls-1, .cls-2, .cls-3 {
        stroke: #2e3192;
        stroke-miterlimit: 10;
      }

      .cls-2, .cls-3, .cls-4 {
        fill: #eb1c24;
      }

      .cls-5 {
        fill: #19ff00;
      }

      .cls-3 {
        stroke-width: 3.86px;
      }
    </style>
  </defs>
  <g id="Layer_2-2" data-name="Layer 2">
    <g id="Layer_1-2" data-name="Layer 1-2">
      <g>
        <g>
          <path class="cls-4" d="M20.21,21.42h.03c7.09.55,14.22.83,21.3,1.22s14.2.9,21.31,1.13h.03c5.15,1.46,14.35,3.34,18.11-1.96h0c1.57-7.73-8.83-11.14-14.07-13.21t-.04-.01c-7.73-3.81-16.15-5.67-24.24-6.11-8.09-.45-16.66.47-24.76,3.41h-.04c-5.43,1.49-16.14,3.73-15.43,11.59h0c3.15,5.68,12.51,4.83,17.79,3.94h.01Z"/>
          <path class="cls-3" d="M20.21,21.42h.03c7.09.55,14.22.83,21.3,1.22s14.2.9,21.31,1.13h.03c5.15,1.46,14.35,3.34,18.11-1.96h0c1.57-7.73-8.83-11.14-14.07-13.21t-.04-.01c-7.73-3.81-16.15-5.67-24.24-6.11-8.09-.45-16.66.47-24.76,3.41h-.04c-5.43,1.49-16.14,3.73-15.43,11.59h0c3.15,5.68,12.51,4.83,17.79,3.94h.01Z"/>
          <path class="cls-1" d="M20.21,21.42h.03c7.09.55,14.22.83,21.3,1.22s14.2.9,21.31,1.13h.03c5.15,1.46,14.35,3.34,18.11-1.96h0c1.57-7.73-8.83-11.14-14.07-13.21t-.04-.01c-7.73-3.81-16.15-5.67-24.24-6.11-8.09-.45-16.66.47-24.76,3.41h-.04c-5.43,1.49-16.14,3.73-15.43,11.59h0c3.15,5.68,12.51,4.83,17.79,3.94h.01Z"/>
        </g>
        <path class="cls-2" d="M99.61,43.36c-1.28-3.72-3.6-8.13-6.77-12.52-6.91-9.57-15.19-15.4-18.49-13.02-3.3,2.38-.38,12.07,6.53,21.65,3.17,4.39,6.94,5.64,9.75,10.37,0,0,14.87,28.63,18.64,31.23,4.74,3.28-9.66-37.71-9.66-37.71Z"/>
      </g>
    </g>
    <circle class="cls-5" cx="10.29" cy="14.72" r="5.39"/>
  </g>
</svg>