<?xml version="1.0" encoding="UTF-8"?>
<svg id="Layer_2" xmlns="http://www.w3.org/2000/svg" version="1.1" viewBox="0 0 112.6 83.6">
  <!-- Generator: Adobe Illustrator 29.0.0, SVG Export Plug-In . SVG Version: 2.1.0 Build 186)  -->
  <defs>
    <style>
      .st0 {
        fill: none;
      }

      .st0, .st1 {
        stroke-width: 4.8px;
      }

      .st0, .st1, .st2 {
        stroke: #2e3192;
        stroke-miterlimit: 10;
      }

      .st1, .st2, .st3 {
        fill: #eb1c24;
      }

      .st4 {
        fill: #19ff00;
      }

      .st2 {
        stroke-width: 3.9px;
      }
    </style>
  </defs>
  <g id="Layer_1-2">
    <g>
      <g>
        <path class="st3" d="M92.4,21.4h0c-7.1.5-14.2.8-21.3,1.2s-14.2.9-21.3,1.1h0c-5.2,1.5-14.3,3.3-18.1-2h0c-1.6-7.7,8.8-11.1,14.1-13.2t0,0c7.7-3.8,16.2-5.7,24.2-6.1,8.1-.5,16.7.5,24.8,3.4h0c5.4,1.5,16.1,3.7,15.4,11.6h0c-3.2,5.7-12.5,4.8-17.8,3.9h0Z"/>
        <path class="st2" d="M92.4,21.4h0c-7.1.5-14.2.8-21.3,1.2s-14.2.9-21.3,1.1h0c-5.2,1.5-14.3,3.3-18.1-2h0c-1.6-7.7,8.8-11.1,14.1-13.2t0,0c7.7-3.8,16.2-5.7,24.2-6.1,8.1-.5,16.7.5,24.8,3.4h0c5.4,1.5,16.1,3.7,15.4,11.6h0c-3.2,5.7-12.5,4.8-17.8,3.9h0Z"/>
        <path class="st0" d="M92.4,21.4h0c-7.1.5-14.2.8-21.3,1.2s-14.2.9-21.3,1.1h0c-5.2,1.5-14.3,3.3-18.1-2h0c-1.6-7.7,8.8-11.1,14.1-13.2t0,0c7.7-3.8,16.2-5.7,24.2-6.1,8.1-.5,16.7.5,24.8,3.4h0c5.4,1.5,16.1,3.7,15.4,11.6h0c-3.2,5.7-12.5,4.8-17.8,3.9h0Z"/>
      </g>
      <path class="st1" d="M13,43.4c1.3-3.7,3.6-8.1,6.8-12.5,6.9-9.6,15.2-15.4,18.5-13,3.3,2.4.4,12.1-6.5,21.7-3.2,4.4-6.9,5.6-9.8,10.4,0,0-14.9,28.6-18.6,31.2-4.7,3.3,9.7-37.7,9.7-37.7Z"/>
    </g>
  </g>
  <circle class="st4" cx="102.3" cy="14.7" r="5.4"/>
</svg>