<?xml version="1.0" encoding="UTF-8"?>
<svg id="Layer_2" data-name="Layer 2" xmlns="http://www.w3.org/2000/svg" viewBox="0 0 311.64 293.44">
  <defs>
    <style>
      .cls-1 {
        fill: #2f3292;
      }

      .cls-2 {
        fill: none;
      }

      .cls-2, .cls-3 {
        stroke-width: 4.75px;
      }

      .cls-2, .cls-3, .cls-4 {
        stroke: #2e3192;
        stroke-miterlimit: 10;
      }

      .cls-3, .cls-4, .cls-5 {
        fill: #eb1c24;
      }

      .cls-4 {
        stroke-width: 3.86px;
      }

      .cls-6 {
        fill: #2e3192;
      }
    </style>
  </defs>
  <g id="Layer_1-2" data-name="Layer 1">
    <g>
      <g>
        <g>
          <g>
            <g>
              <g>
                <path class="cls-5" d="M219.25,231.22s.02,0,.03,0c7.09.55,14.22.83,21.3,1.22,7.08.39,14.2.9,21.31,1.13.01,0,.02,0,.03,0,5.15,1.46,14.35,3.34,18.11-1.96h0c1.57-7.73-8.83-11.14-14.07-13.21-.02,0-.02,0-.04-.01-7.73-3.81-16.15-5.67-24.24-6.11-8.09-.45-16.66.47-24.76,3.41-.02,0-.02,0-.04,0-5.43,1.49-16.14,3.73-15.43,11.59h0c3.15,5.68,12.51,4.83,17.79,3.94Z"/>
                <path class="cls-5" d="M219.25,231.22s.02,0,.03,0c7.09.55,14.22.83,21.3,1.22,7.08.39,14.2.9,21.31,1.13.01,0,.02,0,.03,0,5.15,1.46,14.35,3.34,18.11-1.96h0c1.57-7.73-8.83-11.14-14.07-13.21-.02,0-.02,0-.04-.01-7.73-3.81-16.15-5.67-24.24-6.11-8.09-.45-16.66.47-24.76,3.41-.02,0-.02,0-.04,0-5.43,1.49-16.14,3.73-15.43,11.59h0c3.15,5.68,12.51,4.83,17.79,3.94Z"/>
                <path class="cls-5" d="M219.25,231.22s.02,0,.03,0c7.09.55,14.22.83,21.3,1.22,7.08.39,14.2.9,21.31,1.13.01,0,.02,0,.03,0,5.15,1.46,14.35,3.34,18.11-1.96h0c1.57-7.73-8.83-11.14-14.07-13.21-.02,0-.02,0-.04-.01-7.73-3.81-16.15-5.67-24.24-6.11-8.09-.45-16.66.47-24.76,3.41-.02,0-.02,0-.04,0-5.43,1.49-16.14,3.73-15.43,11.59h0c3.15,5.68,12.51,4.83,17.79,3.94Z"/>
              </g>
              <path class="cls-5" d="M298.65,253.17c-1.28-3.72-3.6-8.13-6.77-12.52-6.91-9.57-15.19-15.4-18.49-13.02s-.38,12.07,6.53,21.65c3.17,4.39,6.94,5.64,9.75,10.37,0,0,14.87,28.63,18.64,31.23,4.74,3.28-9.66-37.71-9.66-37.71Z"/>
            </g>
            <g>
              <g>
                <path class="cls-5" d="M92.39,231.22s-.02,0-.03,0c-7.09.55-14.22.83-21.3,1.22-7.08.39-14.2.9-21.31,1.13-.01,0-.02,0-.03,0-5.15,1.46-14.35,3.34-18.11-1.96h0c-1.57-7.73,8.83-11.14,14.07-13.21.02,0,.02,0,.04-.01,7.73-3.81,16.15-5.67,24.24-6.11,8.09-.45,16.66.47,24.76,3.41.02,0,.02,0,.04,0,5.43,1.49,16.14,3.73,15.43,11.59h0c-3.15,5.68-12.51,4.83-17.79,3.94Z"/>
                <path class="cls-5" d="M92.39,231.22s-.02,0-.03,0c-7.09.55-14.22.83-21.3,1.22-7.08.39-14.2.9-21.31,1.13-.01,0-.02,0-.03,0-5.15,1.46-14.35,3.34-18.11-1.96h0c-1.57-7.73,8.83-11.14,14.07-13.21.02,0,.02,0,.04-.01,7.73-3.81,16.15-5.67,24.24-6.11,8.09-.45,16.66.47,24.76,3.41.02,0,.02,0,.04,0,5.43,1.49,16.14,3.73,15.43,11.59h0c-3.15,5.68-12.51,4.83-17.79,3.94Z"/>
                <path class="cls-5" d="M92.39,231.22s-.02,0-.03,0c-7.09.55-14.22.83-21.3,1.22-7.08.39-14.2.9-21.31,1.13-.01,0-.02,0-.03,0-5.15,1.46-14.35,3.34-18.11-1.96h0c-1.57-7.73,8.83-11.14,14.07-13.21.02,0,.02,0,.04-.01,7.73-3.81,16.15-5.67,24.24-6.11,8.09-.45,16.66.47,24.76,3.41.02,0,.02,0,.04,0,5.43,1.49,16.14,3.73,15.43,11.59h0c-3.15,5.68-12.51,4.83-17.79,3.94Z"/>
              </g>
              <path class="cls-5" d="M12.99,253.17c1.28-3.72,3.6-8.13,6.77-12.52,6.91-9.57,15.19-15.4,18.49-13.02,3.3,2.38.38,12.07-6.53,21.65-3.17,4.39-6.94,5.64-9.75,10.37,0,0-14.87,28.63-18.64,31.23-4.74,3.28,9.66-37.71,9.66-37.71Z"/>
            </g>
          </g>
          <g>
            <g>
              <g>
                <path class="cls-5" d="M219.25,231.22s.02,0,.03,0c7.09.55,14.22.83,21.3,1.22,7.08.39,14.2.9,21.31,1.13.01,0,.02,0,.03,0,5.15,1.46,14.35,3.34,18.11-1.96h0c1.57-7.73-8.83-11.14-14.07-13.21-.02,0-.02,0-.04-.01-7.73-3.81-16.15-5.67-24.24-6.11-8.09-.45-16.66.47-24.76,3.41-.02,0-.02,0-.04,0-5.43,1.49-16.14,3.73-15.43,11.59h0c3.15,5.68,12.51,4.83,17.79,3.94Z"/>
                <path class="cls-4" d="M219.25,231.22s.02,0,.03,0c7.09.55,14.22.83,21.3,1.22,7.08.39,14.2.9,21.31,1.13.01,0,.02,0,.03,0,5.15,1.46,14.35,3.34,18.11-1.96h0c1.57-7.73-8.83-11.14-14.07-13.21-.02,0-.02,0-.04-.01-7.73-3.81-16.15-5.67-24.24-6.11-8.09-.45-16.66.47-24.76,3.41-.02,0-.02,0-.04,0-5.43,1.49-16.14,3.73-15.43,11.59h0c3.15,5.68,12.51,4.83,17.79,3.94Z"/>
                <path class="cls-2" d="M219.25,231.22s.02,0,.03,0c7.09.55,14.22.83,21.3,1.22,7.08.39,14.2.9,21.31,1.13.01,0,.02,0,.03,0,5.15,1.46,14.35,3.34,18.11-1.96h0c1.57-7.73-8.83-11.14-14.07-13.21-.02,0-.02,0-.04-.01-7.73-3.81-16.15-5.67-24.24-6.11-8.09-.45-16.66.47-24.76,3.41-.02,0-.02,0-.04,0-5.43,1.49-16.14,3.73-15.43,11.59h0c3.15,5.68,12.51,4.83,17.79,3.94Z"/>
              </g>
              <path class="cls-3" d="M298.65,253.17c-1.28-3.72-3.6-8.13-6.77-12.52-6.91-9.57-15.19-15.4-18.49-13.02s-.38,12.07,6.53,21.65c3.17,4.39,6.94,5.64,9.75,10.37,0,0,14.87,28.63,18.64,31.23,4.74,3.28-9.66-37.71-9.66-37.71Z"/>
            </g>
            <g>
              <g>
                <path class="cls-5" d="M92.39,231.22s-.02,0-.03,0c-7.09.55-14.22.83-21.3,1.22-7.08.39-14.2.9-21.31,1.13-.01,0-.02,0-.03,0-5.15,1.46-14.35,3.34-18.11-1.96h0c-1.57-7.73,8.83-11.14,14.07-13.21.02,0,.02,0,.04-.01,7.73-3.81,16.15-5.67,24.24-6.11,8.09-.45,16.66.47,24.76,3.41.02,0,.02,0,.04,0,5.43,1.49,16.14,3.73,15.43,11.59h0c-3.15,5.68-12.51,4.83-17.79,3.94Z"/>
                <path class="cls-4" d="M92.39,231.22s-.02,0-.03,0c-7.09.55-14.22.83-21.3,1.22-7.08.39-14.2.9-21.31,1.13-.01,0-.02,0-.03,0-5.15,1.46-14.35,3.34-18.11-1.96h0c-1.57-7.73,8.83-11.14,14.07-13.21.02,0,.02,0,.04-.01,7.73-3.81,16.15-5.67,24.24-6.11,8.09-.45,16.66.47,24.76,3.41.02,0,.02,0,.04,0,5.43,1.49,16.14,3.73,15.43,11.59h0c-3.15,5.68-12.51,4.83-17.79,3.94Z"/>
                <path class="cls-2" d="M92.39,231.22s-.02,0-.03,0c-7.09.55-14.22.83-21.3,1.22-7.08.39-14.2.9-21.31,1.13-.01,0-.02,0-.03,0-5.15,1.46-14.35,3.34-18.11-1.96h0c-1.57-7.73,8.83-11.14,14.07-13.21.02,0,.02,0,.04-.01,7.73-3.81,16.15-5.67,24.24-6.11,8.09-.45,16.66.47,24.76,3.41.02,0,.02,0,.04,0,5.43,1.49,16.14,3.73,15.43,11.59h0c-3.15,5.68-12.51,4.83-17.79,3.94Z"/>
              </g>
              <path class="cls-3" d="M12.99,253.17c1.28-3.72,3.6-8.13,6.77-12.52,6.91-9.57,15.19-15.4,18.49-13.02,3.3,2.38.38,12.07-6.53,21.65-3.17,4.39-6.94,5.64-9.75,10.37,0,0-14.87,28.63-18.64,31.23-4.74,3.28,9.66-37.71,9.66-37.71Z"/>
            </g>
          </g>
          <g>
            <g>
              <g>
                <path class="cls-2" d="M219.25,231.22s.02,0,.03,0c7.09.55,14.22.83,21.3,1.22,7.08.39,14.2.9,21.31,1.13.01,0,.02,0,.03,0,5.15,1.46,14.35,3.34,18.11-1.96h0c1.57-7.73-8.83-11.14-14.07-13.21-.02,0-.02,0-.04-.01-7.73-3.81-16.15-5.67-24.24-6.11-8.09-.45-16.66.47-24.76,3.41-.02,0-.02,0-.04,0-5.43,1.49-16.14,3.73-15.43,11.59h0c3.15,5.68,12.51,4.83,17.79,3.94Z"/>
                <path class="cls-2" d="M219.25,231.22s.02,0,.03,0c7.09.55,14.22.83,21.3,1.22,7.08.39,14.2.9,21.31,1.13.01,0,.02,0,.03,0,5.15,1.46,14.35,3.34,18.11-1.96h0c1.57-7.73-8.83-11.14-14.07-13.21-.02,0-.02,0-.04-.01-7.73-3.81-16.15-5.67-24.24-6.11-8.09-.45-16.66.47-24.76,3.41-.02,0-.02,0-.04,0-5.43,1.49-16.14,3.73-15.43,11.59h0c3.15,5.68,12.51,4.83,17.79,3.94Z"/>
                <path class="cls-2" d="M219.25,231.22s.02,0,.03,0c7.09.55,14.22.83,21.3,1.22,7.08.39,14.2.9,21.31,1.13.01,0,.02,0,.03,0,5.15,1.46,14.35,3.34,18.11-1.96h0c1.57-7.73-8.83-11.14-14.07-13.21-.02,0-.02,0-.04-.01-7.73-3.81-16.15-5.67-24.24-6.11-8.09-.45-16.66.47-24.76,3.41-.02,0-.02,0-.04,0-5.43,1.49-16.14,3.73-15.43,11.59h0c3.15,5.68,12.51,4.83,17.79,3.94Z"/>
              </g>
              <path class="cls-2" d="M298.65,253.17c-1.28-3.72-3.6-8.13-6.77-12.52-6.91-9.57-15.19-15.4-18.49-13.02s-.38,12.07,6.53,21.65c3.17,4.39,6.94,5.64,9.75,10.37,0,0,14.87,28.63,18.64,31.23,4.74,3.28-9.66-37.71-9.66-37.71Z"/>
            </g>
            <g>
              <g>
                <path class="cls-2" d="M92.39,231.22s-.02,0-.03,0c-7.09.55-14.22.83-21.3,1.22-7.08.39-14.2.9-21.31,1.13-.01,0-.02,0-.03,0-5.15,1.46-14.35,3.34-18.11-1.96h0c-1.57-7.73,8.83-11.14,14.07-13.21.02,0,.02,0,.04-.01,7.73-3.81,16.15-5.67,24.24-6.11,8.09-.45,16.66.47,24.76,3.41.02,0,.02,0,.04,0,5.43,1.49,16.14,3.73,15.43,11.59h0c-3.15,5.68-12.51,4.83-17.79,3.94Z"/>
                <path class="cls-2" d="M92.39,231.22s-.02,0-.03,0c-7.09.55-14.22.83-21.3,1.22-7.08.39-14.2.9-21.31,1.13-.01,0-.02,0-.03,0-5.15,1.46-14.35,3.34-18.11-1.96h0c-1.57-7.73,8.83-11.14,14.07-13.21.02,0,.02,0,.04-.01,7.73-3.81,16.15-5.67,24.24-6.11,8.09-.45,16.66.47,24.76,3.41.02,0,.02,0,.04,0,5.43,1.49,16.14,3.73,15.43,11.59h0c-3.15,5.68-12.51,4.83-17.79,3.94Z"/>
                <path class="cls-2" d="M92.39,231.22s-.02,0-.03,0c-7.09.55-14.22.83-21.3,1.22-7.08.39-14.2.9-21.31,1.13-.01,0-.02,0-.03,0-5.15,1.46-14.35,3.34-18.11-1.96h0c-1.57-7.73,8.83-11.14,14.07-13.21.02,0,.02,0,.04-.01,7.73-3.81,16.15-5.67,24.24-6.11,8.09-.45,16.66.47,24.76,3.41.02,0,.02,0,.04,0,5.43,1.49,16.14,3.73,15.43,11.59h0c-3.15,5.68-12.51,4.83-17.79,3.94Z"/>
              </g>
              <path class="cls-2" d="M12.99,253.17c1.28-3.72,3.6-8.13,6.77-12.52,6.91-9.57,15.19-15.4,18.49-13.02,3.3,2.38.38,12.07-6.53,21.65-3.17,4.39-6.94,5.64-9.75,10.37,0,0-14.87,28.63-18.64,31.23-4.74,3.28,9.66-37.71,9.66-37.71Z"/>
            </g>
          </g>
        </g>
        <g>
          <path class="cls-3" d="M92.52,232.75c1.31,3.49,3.85,6.34,7.19,8.68,5.6,10.6,20.14,13.26,30.9,11.41,3.18-.54,4.77-.77,7.97-1.14,5.71.47,11.54.66,17.24.66s11.53-.19,17.24-.66c3.2.37,4.79.6,7.97,1.14,10.76,1.84,25.3-.82,30.9-11.41,3.34-2.34,5.88-5.19,7.19-8.68,1.31-3.49,1.28-7.34-.14-11.35,2.82-15.68-16.19-23.78-28.05-26.69-4.42-.75-6.64-1.07-11.09-1.58-7.83-2.03-15.92-3.03-24.01-3.03s-16.18,1-24.01,3.03c-4.45.51-6.67.83-11.09,1.58-11.86,2.91-30.87,11.01-28.05,26.69-1.42,4.01-1.45,7.86-.14,11.35Z"/>
          <path class="cls-6" d="M104.64,212.98c1.06,1.87,3.12,3.4,5.81,4.66,4.53,5.69,16.29,7.11,24.99,6.12,2.57-.29,3.86-.41,6.44-.61,4.62.25,9.33.35,13.94.35s9.32-.1,13.94-.35c2.58.2,3.87.32,6.44.61,8.7.99,20.45-.44,24.99-6.12,2.7-1.25,4.75-2.78,5.81-4.66,1.06-1.87,1.03-3.94-.11-6.09,2.28-8.41-13.09-12.76-22.68-14.32-3.58-.4-5.37-.57-8.97-.85-6.33-1.09-12.88-1.63-19.42-1.63s-13.08.54-19.42,1.63c-3.6.28-5.39.45-8.97.85-9.59,1.56-24.96,5.91-22.68,14.32-1.15,2.15-1.18,4.22-.11,6.09Z"/>
        </g>
      </g>
      <g id="DgvOln">
        <g>
          <path class="cls-1" d="M249.72,119.2c1.14-2.6,2-5.28,2.66-8.05,3.2-13.46,3.3-43.49-1.11-56.51-5.41-15.99-21.43-35.63-35.73-44.55-1.48-.92-3.15-1.97-4.85-2.63-4.34-.46-8.53-1.86-12.32-4.13-.08.12-.16.24-.24.37-27.7-4.83-56.41-4.98-84.12-.09-2.04.79-4.15,1.37-6.3,1.7-1.76.63-3.56,1.06-5.37,1.3.08.12.17.23.25.35-13.72,6.43-26.13,19.41-34.15,32.14-8.53,13.53-10.34,22.92-10.91,38.86-.49,13.63-.44,28.51,4.74,41.24-5.46-1.03-13.27,4.87-13.4,10.39-.2,8.47,6.84,17.14,8.94,24.77,2.81,10.21-1.67,23.99,11.72,27.5,2.33.61,4.79.57,7.11,1.25,1.63,11.59,5.73,22.72,13.41,31.63,16.56,19.2,49.05,38.15,75.1,34.04,19.31-3.04,48.88-22.35,60.15-38.29,5.59-7.91,8.58-17.88,10.03-27.38.24-.35,5.71-.9,6.82-1.18,13.79-3.47,9.14-17.14,12.02-27.58,2.1-7.62,9.15-16.31,8.94-24.77-.13-5.51-7.92-11.42-13.4-10.39ZM75.71,165.86c-.16,4.07.05,8.15.38,12.18-6.4-.09-10.73-1.38-11.94-8.22-1-5.6-.31-11.15-1.96-16.93-1.89-6.61-9.21-16.52-8.63-23.35.23-2.71,5.04-6.11,7.78-5.97,3.85.2,9.32,5.75,11.64,8.73,1.66,2.13,2.97,4.86,3.11,7.6-4.23-4.47-8.64-10.15-15.63-8.92-1.81.32-3.66,1.34-2.7,3.46.86,1.9,3.29.79,4.66.86,2.07.11,5.16,2.03,6.61,3.49,2.9,2.92.78,3.37-.48,6.46-1.64,4.02-2.55,10.89-1.46,15.09.32,1.24,1.32,1.84,2.61,1.71,3.26-.31,1.3-4.96,1.33-7.02.02-1.72,1.31-8.05,2.34-9.32.48-.59.73-.07,1.07.38,4.17,5.66,1.54,13.15,1.28,19.76ZM217.76,212.74c-15.62,17.65-44.36,33.84-68.43,31.73-17.86-1.57-49.56-22.31-59.37-37.25-13.85-21.1-7.91-42.14-8.77-65.33-.35-9.31-1.89-18.61-1.48-27.97.65-14.92,3.16-43.05,15.1-53.19,12.11-10.28,35.2-16.42,50.74-14.07,4.24.64,9.89,2.76,13.58,3.14,2.11.22,5.42-.5,7.97-.36,16.81.96,40.98,13.94,46.12,30.89.67,2.2.5,7.46,3.91,6.48,2.7-.78,1.13-5.21.63-7.03-4.41-15.93-22.14-27.96-37.42-32.14-.09-.63.82-.34,1.26-.36,11.13-.47,31.51,7.86,38.68,16.54,8.88,10.76,11.41,36.33,12.01,50.1.41,9.36-1.14,18.65-1.48,27.97-.95,25.51,5.92,49.42-13.05,70.86ZM249.82,152.9c-1.8,6.31-.7,13.53-2.54,19.25-1.61,5.01-6.68,5.89-11.36,5.89.33-4.04.54-8.12.38-12.18-.16-4.17-1.93-13.05-.56-16.51.24-.62,1.59-2.97,2-3.45.37-.44.46-.71.91-.18,1.02,1.21,2.32,7.63,2.34,9.32.03,2.06-1.93,6.71,1.33,7.02,1.29.12,2.28-.47,2.61-1.71,1.09-4.2.18-11.07-1.46-15.09-1.26-3.09-3.38-3.54-.48-6.46,1.45-1.46,4.54-3.38,6.61-3.49,1.37-.07,3.81,1.04,4.66-.86,1.12-2.49-1.63-3.46-3.63-3.62-6.35-.49-10.82,4.7-14.53,9.07-.4-.71.07-1.88.29-2.62,1.37-4.5,9.18-13.17,13.98-13.65,2.68-.27,7.43,2.8,7.99,5.27,1.35,5.89-6.82,17.97-8.54,24Z"/>
          <path class="cls-5" d="M180.34,47.64c-.09-.63.82-.34,1.26-.36,11.13-.47,31.51,7.86,38.68,16.54,8.88,10.76,11.41,36.33,12.01,50.1.41,9.36-1.14,18.65-1.48,27.97-.95,25.51,5.92,49.42-13.05,70.86-15.62,17.65-44.36,33.84-68.43,31.73-17.86-1.57-49.56-22.31-59.37-37.25-13.85-21.1-7.91-42.14-8.77-65.33-.35-9.31-1.89-18.61-1.48-27.97.65-14.92,3.16-43.05,15.1-53.19s35.2-16.42,50.74-14.07c4.24.64,9.89,2.76,13.59,3.14,2.11.22,5.42-.5,7.97-.36,16.81.96,40.98,13.94,46.12,30.89.67,2.2.5,7.46,3.91,6.48,2.7-.78,1.13-5.21.63-7.03-4.41-15.93-22.14-27.96-37.42-32.14ZM120.7,103.32c-5.77.13-15.1,2.37-19.51,6.28-3.09,2.74-2.26,7.72,1.96,8.15,3.09.32,4.97-2.05,7.72-3.19,7.67-3.17,17.79-2.37,25.24,1.11,3.13,1.46,6.03,5.07,9.55,2.08,2.58-2.19,1.81-5.43-.58-7.42-5.64-4.7-17.17-7.17-24.38-7.01ZM189.35,103.32c-6.62.15-17.25,2.72-22.42,7.01-2.39,1.99-3.16,5.23-.58,7.42,3.53,2.99,6.41-.61,9.55-2.08,7.45-3.48,17.57-4.28,25.24-1.11,2.9,1.2,4.73,3.67,8.06,3.16,3.63-.56,4.55-5.09,2.22-7.62-4.27-4.63-16-6.92-22.06-6.78ZM117.79,122.94c-3.87.37-8.96,1.88-12.52,3.46-1.98.88-7.01,2.8-5.01,5.5,1.83,2.47,4.72-.28,6.83-1.14,8.66-3.53,18.72-5.13,27.23-.23,1.74,1,6.11,5.88,7.36,2.13.68-2.05-.6-2.98-2.05-4.17-5.84-4.8-14.46-6.27-21.84-5.55ZM186.44,122.94c-4.61.45-10.47,2.61-14.06,5.55-1.48,1.22-3.12,2.59-1.81,4.65,1.68,2.64,4.63-1.01,6.24-2.04,7.67-4.94,17.51-4.32,25.78-1.28,1.54.57,6.09,3.11,7.02,3.17,2.56.17,3.63-2.79,1-4.66-5.73-4.08-17.27-6.07-24.17-5.4ZM137.12,168.24c-.96-3.16.07-6.87,1.87-9.57.84-1.25,4.66-4.33,1.05-5.53-2.98-.99-5.67,3.78-6.63,6.13-1.61,3.94-1.03,5.94-1.43,9.83-1.41,13.68-14.12,19.78-15.2,36.01-.15,2.2-.66,5.7,2.34,5.65,3.3-.05,1.85-5.05,2.69-7.15.18-.46-.12-.47.59-.53,1.14-.09,5.24,3.05,6.72,3.85,17.33,9.44,36.43,9.44,53.77,0,1.36-.74,5.43-3.77,6.35-3.85,1.79-.15,1.1,3.1,1.31,4.53.29,1.97.6,3.53,3.03,3.13,2.2-.36,1.76-3.91,1.65-5.63-1.09-16.3-13.8-22.28-15.25-36.33-.29-2.82.14-4.64-.72-7.63-.77-2.68-4.3-9.98-7.78-7.76-2.68,1.71.73,4.07,1.67,5.52,1.74,2.69,2.67,6.2,1.74,9.33-.94-.68-.86-1.98-1.51-3.03-3.43-5.51-12.87-.61-16.11,3.02-.72.8-.66,2.01-1.62,1.82-1.83-5.13-13.51-10.47-17.02-4.84-.65,1.05-.56,2.35-1.51,3.03ZM152.66,215.93c-2.52.19-10.59.66-8.23,4.75,1.12,1.94,6.3.02,8.49-.14,1.63-.12,3.82-.11,5.46-.02,1.94.1,7.58,1.59,8.73.77,2.09-1.48.59-3.66-1.5-4.37-3.42-1.16-9.34-1.27-12.95-1Z"/>
          <path class="cls-5" d="M235.91,178.04c.33-4.04.54-8.12.38-12.18-.16-4.17-1.93-13.05-.56-16.51.24-.62,1.59-2.97,2-3.45.37-.44.46-.71.91-.18,1.02,1.21,2.32,7.63,2.34,9.32.03,2.06-1.93,6.71,1.33,7.02,1.29.12,2.28-.47,2.61-1.71,1.09-4.2.18-11.07-1.46-15.09-1.26-3.09-3.38-3.54-.48-6.46,1.45-1.46,4.54-3.38,6.61-3.49,1.37-.07,3.81,1.04,4.66-.86,1.12-2.49-1.63-3.46-3.63-3.62-6.35-.49-10.82,4.7-14.53,9.07-.4-.71.07-1.88.29-2.62,1.37-4.5,9.18-13.17,13.98-13.65,2.68-.27,7.43,2.8,7.99,5.27,1.35,5.89-6.82,17.97-8.54,24-1.8,6.31-.7,13.53-2.54,19.25-1.61,5.01-6.68,5.89-11.36,5.89Z"/>
          <path class="cls-5" d="M76.09,139.9c-4.23-4.47-8.64-10.15-15.63-8.92-1.81.32-3.66,1.34-2.7,3.46.86,1.9,3.29.79,4.66.86,2.07.11,5.16,2.03,6.61,3.49,2.9,2.92.78,3.37-.48,6.46-1.64,4.02-2.55,10.89-1.46,15.09.32,1.24,1.32,1.84,2.61,1.71,3.26-.31,1.3-4.96,1.33-7.02.02-1.72,1.31-8.05,2.34-9.32.48-.59.73-.07,1.07.38,4.17,5.66,1.54,13.15,1.28,19.76-.16,4.07.05,8.15.38,12.18-6.4-.09-10.73-1.38-11.94-8.22-1-5.6-.31-11.15-1.96-16.93-1.89-6.61-9.21-16.52-8.63-23.35.23-2.71,5.04-6.11,7.78-5.97,3.85.2,9.32,5.75,11.64,8.73,1.66,2.13,2.97,4.86,3.11,7.6Z"/>
          <path class="cls-1" d="M137.12,168.24c.94-.68.86-1.98,1.51-3.03,3.5-5.63,15.19-.29,17.02,4.84.96.18.91-1.02,1.62-1.82,3.24-3.63,12.68-8.53,16.11-3.02.65,1.05.56,2.35,1.51,3.03.93-3.13,0-6.64-1.74-9.33-.94-1.45-4.35-3.81-1.67-5.52,3.49-2.22,7.01,5.08,7.78,7.76.86,3,.43,4.82.72,7.63,1.45,14.05,14.16,20.03,15.25,36.33.11,1.72.55,5.27-1.65,5.63-2.43.4-2.74-1.16-3.03-3.13-.21-1.42.48-4.67-1.31-4.53-.92.08-4.99,3.1-6.35,3.85-17.34,9.44-36.44,9.44-53.77,0-1.47-.8-5.58-3.94-6.72-3.85-.71.06-.41.07-.59.53-.83,2.1.62,7.1-2.69,7.15-3,.05-2.49-3.44-2.34-5.65,1.08-16.23,13.8-22.34,15.2-36.01.4-3.88-.18-5.88,1.43-9.83.96-2.34,3.65-7.12,6.63-6.13,3.61,1.2-.22,4.28-1.05,5.53-1.81,2.69-2.83,6.4-1.87,9.57ZM156.36,172.96c-.67-.51-.9.83-1.42,1.29-4.07,3.6-11.6,2.02-16.21.55-.76-.25-2.19-1.33-2.72-.96-1.84,8.15-8.26,13.43-11.6,20.74,6.35-3.25,14.76-8.68,22.16-6.92,4.01.96,5.55,3.43,10.35,3.11,3.13-.2,4.71-1.97,7.35-2.82,7.56-2.42,16.84,2.91,23.15,6.79-2.8-7.48-9.72-12.66-11.43-20.91-3.31.73-7.16,2.89-10.74,2.77-2-.07-6.71-1.06-8.19-2.36-.51-.45-.65-1.24-.71-1.29ZM182.88,201.29c-10.04-1.65-20.07,2.51-29.98,1.83-3.85-.27-8.03-1.47-11.97-1.83s-7.88-.47-11.8,0c2,1.55,4.79,2.88,7.13,3.94,14.4,6.48,32.06,5.03,45.54-3.03.4-.24,1-.37,1.08-.91Z"/>
          <path class="cls-1" d="M120.7,103.32c7.2-.16,18.73,2.32,24.38,7.01,2.39,1.99,3.16,5.23.58,7.42-3.52,2.99-6.42-.62-9.55-2.08-7.45-3.48-17.57-4.28-25.24-1.11-2.75,1.14-4.63,3.51-7.72,3.19-4.22-.44-5.06-5.42-1.96-8.15,4.41-3.91,13.74-6.16,19.51-6.28Z"/>
          <path class="cls-1" d="M189.35,103.32c6.06-.13,17.8,2.15,22.06,6.78,2.33,2.53,1.41,7.06-2.22,7.62-3.32.51-5.16-1.96-8.06-3.16-7.67-3.17-17.79-2.37-25.24,1.11-3.14,1.47-6.02,5.07-9.55,2.08-2.58-2.19-1.81-5.43.58-7.42,5.16-4.3,15.8-6.87,22.42-7.01Z"/>
          <path class="cls-1" d="M117.79,122.94c7.38-.71,16,.76,21.84,5.55,1.45,1.19,2.73,2.12,2.05,4.17-1.25,3.75-5.62-1.13-7.36-2.13-8.51-4.9-18.57-3.3-27.23.23-2.11.86-5,3.62-6.83,1.14-2-2.7,3.03-4.62,5.01-5.5,3.56-1.58,8.65-3.09,12.52-3.46Z"/>
          <path class="cls-1" d="M186.44,122.94c6.9-.67,18.44,1.32,24.17,5.4,2.63,1.87,1.56,4.83-1,4.66-.93-.06-5.48-2.61-7.02-3.17-8.27-3.05-18.11-3.66-25.78,1.28-1.6,1.03-4.56,4.68-6.24,2.04-1.32-2.07.33-3.44,1.81-4.65,3.59-2.95,9.45-5.11,14.06-5.55Z"/>
          <path class="cls-1" d="M152.66,215.93c3.62-.27,9.53-.16,12.95,1,2.09.7,3.58,2.88,1.5,4.37-1.15.82-6.78-.66-8.73-.77-1.64-.09-3.83-.09-5.46.02-2.2.16-7.38,2.08-8.49.14-2.36-4.1,5.72-4.57,8.23-4.75Z"/>
          <path class="cls-5" d="M182.88,201.29c-.08.55-.69.68-1.08.91-13.48,8.06-31.14,9.5-45.54,3.03-2.35-1.06-5.14-2.39-7.13-3.94,3.92-.47,7.86-.36,11.8,0s8.12,1.56,11.97,1.83c9.92.69,19.95-3.48,29.98-1.83Z"/>
          <path class="cls-5" d="M156.36,172.96c.06.04.2.83.71,1.29,1.48,1.3,6.19,2.3,8.19,2.36,3.59.12,7.43-2.05,10.74-2.77,1.71,8.24,8.63,13.42,11.43,20.91-6.31-3.89-15.59-9.21-23.15-6.79-2.65.85-4.22,2.61-7.35,2.82-4.8.31-6.34-2.16-10.35-3.11-7.4-1.76-15.81,3.67-22.16,6.92,3.34-7.31,9.76-12.58,11.6-20.74.53-.37,1.96.71,2.72.96,4.61,1.48,12.14,3.05,16.21-.55.52-.46.75-1.8,1.42-1.29Z"/>
        </g>
      </g>
    </g>
  </g>
</svg>